<mxfile host="app.diagrams.net" agent="Mozilla/5.0 (Windows NT 10.0; Win64; x64) AppleWebKit/537.36 (KHTML, like Gecko) Chrome/138.0.0.0 Safari/537.36" version="28.0.7">
  <diagram name="Page-1" id="Ec6iCRXhpF9n7NIT2eFr">
    <mxGraphModel dx="19856" dy="8084" grid="1" gridSize="10" guides="1" tooltips="1" connect="1" arrows="1" fold="1" page="1" pageScale="1" pageWidth="850" pageHeight="1100" math="0" shadow="0">
      <root>
        <mxCell id="0" />
        <mxCell id="1" parent="0" />
        <mxCell id="ZYFGGIPs_d5iYjMeQqu6-2" style="edgeStyle=orthogonalEdgeStyle;rounded=0;orthogonalLoop=1;jettySize=auto;html=1;" edge="1" parent="1" source="ZYFGGIPs_d5iYjMeQqu6-1">
          <mxGeometry relative="1" as="geometry">
            <mxPoint x="160" y="236" as="targetPoint" />
          </mxGeometry>
        </mxCell>
        <mxCell id="ZYFGGIPs_d5iYjMeQqu6-1" value="" style="shape=image;verticalLabelPosition=bottom;labelBackgroundColor=default;verticalAlign=top;aspect=fixed;imageAspect=0;editableCssRules=.*;image=data:image/svg+xml,PHN2ZyB4bWxuczp4bGluaz0iaHR0cDovL3d3dy53My5vcmcvMTk5OS94bGluayIgeG1sbnM9Imh0dHA6Ly93d3cudzMub3JnLzIwMDAvc3ZnIiBzdHlsZT0iY29sb3I6IHJnYigwLCAwLCAwKTsgZm9udC1zaXplOiBtZWRpdW07IGZvbnQtc3R5bGU6IG5vcm1hbDsgZm9udC12YXJpYW50LWxpZ2F0dXJlczogbm9ybWFsOyBmb250LXZhcmlhbnQtY2Fwczogbm9ybWFsOyBmb250LXdlaWdodDogNDAwOyBsZXR0ZXItc3BhY2luZzogbm9ybWFsOyBvcnBoYW5zOiAyOyB0ZXh0LWFsaWduOiBzdGFydDsgdGV4dC1pbmRlbnQ6IDBweDsgdGV4dC10cmFuc2Zvcm06IG5vbmU7IHdpZG93czogMjsgd29yZC1zcGFjaW5nOiAwcHg7IC13ZWJraXQtdGV4dC1zdHJva2Utd2lkdGg6IDBweDsgd2hpdGUtc3BhY2U6IG5vcm1hbDsgdGV4dC1kZWNvcmF0aW9uLXRoaWNrbmVzczogaW5pdGlhbDsgdGV4dC1kZWNvcmF0aW9uLXN0eWxlOiBpbml0aWFsOyB0ZXh0LWRlY29yYXRpb24tY29sb3I6IGluaXRpYWw7IiBvdmVyZmxvdz0iaGlkZGVuIiB4bWw6c3BhY2U9InByZXNlcnZlIiBoZWlnaHQ9IjMxMi4wMDAzNjYyMTA5Mzc1IiB3aWR0aD0iNDI2LjAwMTU1NjM5NjQ4NDQiIHZpZXdCb3g9IjAgMCA0MjYuMDAxNTU2Mzk2NDg0NCAzMTIuMDAwMzY2MjEwOTM3NSI+PGRlZnM+PGltYWdlIGlkPSJpbWcwIiBwcmVzZXJ2ZUFzcGVjdFJhdGlvPSJub25lIiB4bGluazpocmVmPSJkYXRhOmltYWdlL2pwZWc7YmFzZTY0LC85ai80QUFRU2taSlJnQUJBUUVBWUFCZ0FBRC8yd0JEQUFNQ0FnTUNBZ01EQXdNRUF3TUVCUWdGQlFRRUJRb0hCd1lJREFvTURBc0tDd3NORGhJUURRNFJEZ3NMRUJZUUVSTVVGUlVWREE4WEdCWVVHQklVRlJULzJ3QkRBUU1FQkFVRUJRa0ZCUWtVRFFzTkZCUVVGQlFVRkJRVUZCUVVGQlFVRkJRVUZCUVVGQlFVRkJRVUZCUVVGQlFVRkJRVUZCUVVGQlFVRkJRVUZCUVVGQlQvd0FBUkNBSmVBcTBEQVNJQUFoRUJBeEVCLzhRQUh3QUFBUVVCQVFFQkFRRUFBQUFBQUFBQUFBRUNBd1FGQmdjSUNRb0wvOFFBdFJBQUFnRURBd0lFQXdVRkJBUUFBQUY5QVFJREFBUVJCUkloTVVFR0UxRmhCeUp4RkRLQmthRUlJMEt4d1JWUzBmQWtNMkp5Z2drS0ZoY1lHUm9sSmljb0tTbzBOVFkzT0RrNlEwUkZSa2RJU1VwVFZGVldWMWhaV21Oa1pXWm5hR2xxYzNSMWRuZDRlWHFEaElXR2g0aUppcEtUbEpXV2w1aVptcUtqcEtXbXA2aXBxckt6dExXMnQ3aTV1c0xEeE1YR3g4akp5dExUMU5YVzE5aloydUhpNCtUbDV1Zm82ZXJ4OHZQMDlmYjMrUG42LzhRQUh3RUFBd0VCQVFFQkFRRUJBUUFBQUFBQUFBRUNBd1FGQmdjSUNRb0wvOFFBdFJFQUFnRUNCQVFEQkFjRkJBUUFBUUozQUFFQ0F4RUVCU0V4QmhKQlVRZGhjUk1pTW9FSUZFS1JvYkhCQ1NNelV2QVZZbkxSQ2hZa05PRWw4UmNZR1JvbUp5Z3BLalUyTnpnNU9rTkVSVVpIU0VsS1UxUlZWbGRZV1ZwalpHVm1aMmhwYW5OMGRYWjNlSGw2Z29PRWhZYUhpSW1La3BPVWxaYVhtSm1hb3FPa3BhYW5xS21xc3JPMHRiYTN1TG02d3NQRXhjYkh5TW5LMHRQVTFkYlgyTm5hNHVQazVlYm42T25xOHZQMDlmYjMrUG42LzlvQURBTUJBQUlSQXhFQVB3RDlVNktLS0FDaWszVTNmUUFjZWxGWldwK0l0TjBySzNOMUVqLzg4czduL3dDK2V0WU4xNCtXVFAyS3dubUJIK3RsL2RML0FQRmZwV2Nxa1lrU25HTzUyZStqZlhuRTNpWFhMdm56YmF6WC9wbEh2ZjhBOGVxak45c3ZQK1ByVTd1Yi90cnNUL3ZoYXk5c2pMMjBUMHE1MUNDMFhkTk5IRW5xN2JheXB2Rytpd2pqVTRKai93Qk1qNXYvQUtEWENKcFZtajd2SWlkLzc3L085V05pcDkxYWoyMGpQMjBqcDIrSUZnRnhGRmVUbi9ZZ1lmOEFvVlZtK0lFcnArNTBpNFAvQUYxa1ZLeEtLajJraVBhU05OdkhHcnNQbDAyMGkvMzdsbS85a3FOL0YydVA5eHJGUCsyVHQvN1BWQ2lvNXAvekVlMWtXZjhBaElOZGY3MS9icC91MnY4QTluVVVtcWExSi96RlhUL2RpU282S1FjMHhCZTZvdjN0YnZYL0FBaS8rSXBvbnYyKzlxMTZQKzJsUHBsQkhOTVQvU2YrZ25mL0FQZ1MxTTh1Zi9vSTMvOEE0R1MvL0YxSlQ2QXVSZVhjZjgvOS93RCtCY3YvQU1WU3RIY0g3dW8zL3dENEZ5Ly9BQlZTVVVEdVFrM2JkTlN2bCt0eTFTdFBxSSs3cTE3L0FOOUovd0RFVXRGQWhQdHVzcjkzVzd2L0FJR2tYL3hGVEpyT3RKL3pGZC8rL0FsUlV5bVh6U0xxZUp0ZWpIL0gzYlMvNzBIL0FOblZqL2hNZGJUL0FKWldNMy9mYTFtMFUrYWY4d2Uwa2FxK1BOUlRpVFNZMzk0cnIvNHBhc3I4UVVMYkpkTHZrSDk1TmovK2d0V0RUS3Jta1g3U1IxYWZFTFNtSDd4cmkzLzY3UU9LdjIzaTNTcng5a0dvMjhqZjNSSU4xY1JVVTF0Rk4vcllsZjhBMzFvOXBJUGJ5UFVFbVJ4OHJLMVNieFhrcWFiQkMyNkRkYmY5ZTdPbi9vTlhZYjNWYlA4QTFHcTNQKzVjYlpVLzhlK2Ivd0FmcS9iRzN0ajB6SXpUcTRDMzhZNnhiZytmYlcxNHYvVEptaWIvQU5tclR0UEhsZy95WE1jOWd4N3l4L0wvQU45TFczdElseHFST3ZvcW5aNmpiWDhLeTIwOGM4VGZ4STI2ck8rdGpZZlJTYnFXZ0FvcE4xTFFBVVVVVUFGRkZGQUJSUlJRQVVVVVVBRkZGRkFCUlJSUUFVVVVVQUZGRkZBQlJSUlFBVVVVVUFGRkZGQUJSUlJRQVVVVVVBRkZGRkFCUlJSUUFVVVVVQUZGRkZBQlJSUlFBVVVVVUFGRkZGQUJSUlJRQVVVVVVBTUFwanZUNjVueHhyTW1pNkc4c0hGeks2MjhUZjNXYXBuTGxJK0VsMXJ4YmE2U3hnalUzbDZmK1dFVGZkOTIvdTF5dDlxbXE2bzMrazNodDR2K2ZlMCtYL3g3NzFVck8yVzJpMjd0N3Q5NTMrK3pWWXJpbEtVampsVWxJcncyY0Z0djhxSlUzZmVmKy9WaWlpc3pFS0tLS0FDaWlpZ0Fvb29vQUtLS0tBQ2lpbVVBUG9yNDEvYisrSXZ4VzhESm9LK0VYMVRUZkNVcmY4VFhWdEVnODI3aS93RGlhOE84TmVNUEFYaWV4ZVh3eCsxTDQ3OE4rTGYrV1VQalM2ZExUZC9jWmRtMy93QWZyVDJadEdtZnAzUlhodW0rS3ZpSDRWL1o3dU5ZYTgwbjRsK0tyV0IzaXU5Sm5TSzN1ay92NzIrWC9icjVxL1lxL2FZK05YeE44WWEwbXJlSFpmRitreTMzbFhtb3ZxRVZ1bWtMODN5SkZ0K2YvZ0ZIS1J5SDZEMFY0VnIzeHk4ZjNQaTNVOUk4Si9DdTV1Ykt3KzlyUGlTOC9zcTBsLzY1UHNmZFdGOEFmMnliYjR3ZkVqV3ZBR3ErSEc4UGVLTkwzK2FrTjRsMWJ5N2Z2N1pWMlVjc2c1WkgwbFJYeUY0Mi9iczFYdzM4ZXRWK0dHa2ZEZTU4U2FsQXV5emV4dmtSNTMvMmxaTnFyL3Q3cXovMmtmMmpmamI0SCtBOHZpQmZoNUg0TDFKNVdpdUxuKzFvTHA3SlA0SDJiUG4zMGNzZzVaSDJiUlh5MSt3MzhXdmliOFNQQWRrM2pId3ZLbW1mWmZOZzhUemFpa3IzNzcvK2VYM2tyNmwvanFKUkNVZVFLS0tLUkFVVVVVQUZGRkZBQlJSUlFBVVVVVUFWMHMwaGxlU0RkYlMvODliZHRqMXJhYjR0MURUWFZidFRxTUg5OUYyeXIvOEFGVlJvcHhueWZDWEdYSWVnNlhyRnRxdHI1MXBLc3lldFg5OWVTU1h6ZUhMeUxVb0cySWpiWjRrLzVhclhyQ1B1VGRYWlRxYzUyVTVjNCtuMGk5S1d0allLS0tLQUNpaWlnQW9vb29BS0tLS0FDaWlpZ0Fvb29vQUtLS0tBQ2lpaWdBb29vb0FLS0tLQUNpaWlnQW9vb29BS0tLS0FDaWlpZ0Fvb29vQUtLS0tBQ2lpaWdBb29vb0FLS0tLQUNpaWlnQW9vb29BS0tLS0FHVmplSjlBVHhEcFUxb3piSCs5Ry93RGRhdHNITk5kTTFuS053UEowZWUybit5WDBYazNxL2VUK0IvOEFiU3JGZDdxbWpXbXNRZVhkUXJLdVBsUDhTLzdyVnkxOTRMdjdQNXJLNFc3aS93Q2VOeDhyZjk5MXlTcHlpY0U2VXZzbVhSVVUweldEYmJ5Mm5zMy9BTDhxL0ovMzM5Mm5JNnpKdVZ0NmY3RlptSStpaWlnQW9vb29BS0tLS0FDaWlpZ0FwbFBvb0ErZC93Qm9md3I4Y2s4UzZiNGcrRjNpQzJ2TlBnVC9BRXp3bnFDeEpGUC9BTHI3UC9aNjhmOEFpREQ4VlBpdm9sMXBHby9zcStIVTFLNGlhSmRXdnRWdFhTSnY3NmJVM2Y4QWo5ZmRGTXJTTWk0eVBtajlrZjhBWnE4VGZBLzRNNjM0ZDhRNnBGY2FocWdsWmJTMmtab2JYY2pmS3JmOENyeC85bEw0WS9HdjltL3hsNGowR2Y0ZVI2cm91dVh6U25Yb3RWaVJMVmZuK2ZiOTU2Kzk2S09ZZk9mQWVnL0EzNG1hYjhYUEV1b2ZFendKcW54YTArNmxadEt1TGZYVVcwZ1hmOGl0RTBxZitnMC85bUQ5blA0Zy9EVDlyRFd2RldyK0FvZEI4TmFqRkw1RDZmZFJQYjJ1NzdpZmYzZitPVjk4MCtuekI3UStLUEN2d0g4ZFdIN2V1cStQcm53OUtuaEtXQjFpMVB6WXRqZjhBMzdxOXY4QTJ1dmhYclB4bStCWGlEd3ZvS3h2cXR3cVBBa3JiRWRsL2czMTdSVEtPWU9iN1I4eGZzV3cvRS93WjROMC93QUQrTnZoMy93amVuNlRCc2kxbiswNHBmdERiLzhBbmt2M2ErbmFLS1hOemlsTG5IMFVVVm1RRkZGRkFCUlJSUUFVVVVVQUZGRlY1cnlDMi8xc3FwUUJZcG0rcGJPeDFEVmYrUFN4azJmODliajkwbi94VmIybitCb2d5eTZwUDlzZi9uaXE3SWYrK2Y0cTBqR1VpNDA1VE9lMDNScGZGTjVGaE51bHh2dWtsZjhBNWEvN0sxNmNuM2R0SkZFa2NhSXE3RldwRXJwaFQ1VHZqSGtIMFVVVnNXRkZGRkFCUlJSUUFVVVVVQUZGRkZBQlJSUlFBVVVVVUFGRkZGQUJSUlJRQVVVVVVBRkZGRkFCUlJSUUFVVVVVQUZGRkZBQlJSUlFBVVVVVUFGRkZGQUJSUlJRQVVVVVVBRkZGRkFCUlJSUUFVVVVVQUZGRkZBQlJSUlFBVVVVVUFRUEFycmhsVmw5Nnc3dndWcE4yMi83R3NNdjk2My9BSFgvQUtEWFFVRk1WbktNZW91VkhGVGVBcDQvK1BUVkpQOEFkdUlsYi8wSFpXZk40WjEyMk9GaXRidGV2N3FRbzMvZkxjVjZMUnNyUDJNVEwyTUR5eWEyMUMyLzErbFhhZjdpK2IvNkRWVjlWdG9mOWJLMXQvMThLOFgvQUtGWHJtd1V4NFVmN3lxMVoreEk5aWp5NUx5Q2IvVlR4djhBN2pWTFhkWEhoZlNydDk4Mm0yc2ovd0I0d3J1L1BGVW44QTZLNCtXejhuL3JsSXkwZXlrUjdHUng5UHJwRytIZGdSKzZ1TDJFL3dEWHd6ZitoWnFOL2g5L3p5MWU4VC9mU0p2L0FHU285bklqMlVqbktLMi8rRUF2ays3cTBiZjc5ci85blViK0NkWGpIeTZoYVA4QTcwVHIvd0N6MGNzLzVTUFpTTWluMXBEd2RyaS84dHJCdndlb244SmE5L2RzWC83YXQvOEFFVkhMUCtVT1daU29xMGZEUGlBZjh1MWkvd0QyM2IvNGltZjhJNzRnL3dDZkt5LzhDbi8rSW81WkJ5eUlLS3dmQzJ0YWw0czhRK0t0SXR0TWpTNDhPM2lXVnk4dHo4ak84U3kvTDhuOXlWYTZqL2hHdkVIL0FENlduL2dVMy94RlBsbUhMTXEwVmEvNFJieEEvd0R5d3NVLzdidC84UlVxZUVOYlAzallyL3dOdi9pS09XWStXWlFwbGFwOEZhMDMvTHpZTDlFYXBWOERhcTMzdFN0bC93QnlCdjhBNHVxNVoveWk5bEl5S1pXOUg0QXZDUDN1c04vMnh0a1gvd0JDMzFLdnc5akEvZTZyZXY4QTkrbC85a285bkwrVXYyY2puS042L3dBVDExYS9EelRNZk0xM0wvdjNMMVlUd1Jvc1ozblQ0bi82NmpmL0FPaFVlemtQMk1qaEp0U3M3Yi9XM01DZjc3VUplTGN0dGdndWJuL3JsQXoxNlpiYUpaV0Evd0JHczRMZi9yakVxMWM4a1ZYc1pGZXhQTklkTTFlNS93QlJwVTZmN2R3eXhKLzhWV2hiK0RkWHVCKy9tdExUL2NWcGYvaUs3N1pSc3JUMktOUFl3T1BnK0g4VGY4ZmQ3YzNuK3h2OHBmOEF4MnRyVHZEbW02VTI2MnNvSVgvdmhQbS83NnJYNXBNQ3JqVGpFMWpDTVIyQlMwVVZzV0ZGRkZBQlJSUlFBVVVVVUFGRkZGQUJSUlJRQVVVVVVBRkZGRkFCUlJSUUFVVVVVQUZGRkZBQlJSUlFBVVVVVUFGRkZGQUJSUlJRQVVVVVVBRkZGRkFCUlJSUUFVVVVVQUZGRkZBQlJSUlFBVVVVVUFGRkZGQUJSUlJRQVVVVVVBRkZGRkFCUlJSUUFVVVVVQUZGRkZBQlJSUlFBVVVVVUFGRkZGQUJSUlJRQVV5bjBVQU1vMlUraWdEeFg0SmY4bFkrTi84QTJNVnIvd0NtMjNyMmV2Ri9nbC95Vm40NGY5akZhLzhBcHR0Njlyb0Fac28yVStpZ0Fvb29vQUtLS0tBQ2lpaWdBb29vb0FLS0tLQUNpaWlnQW9vb29BS0tLS0FDaWlpZ0Fvb29vQUtLS0tBQ2lpaWdBb29vb0FLS0tLQUNpaWlnQW9vb29BS0tLS0FDaWlpZ0Fvb29vQUtLS0tBQ2lpaWdBb29vb0FLS0tLQUNpaWlnQW9vb29BS0tLS0FDaWlpZ0Fvb29vQUtLS0tBQ2lpaWdBb29vb0FLS0tLQUNpaWlnQW9vb29BS0tLS0FDaWlpZ0Fvb29vQUtLS0tBQ2lpaWdBb29vb0FLS0tLQVBGdmdmL3dBbFkrT0gvWXhXdi9wdHRhOXByeGI0SC84QUpXUGpoLzJNVnIvNmJiV3ZhYUFDaWlpZ0Fvb29vQUtLS0tBQ2lpaWdBb29vb0FLS0tLQUNpaWlnQW9vb29BS0tLS0FDaWlpZ0Fvb29vQUtLS0tBQ2lpaWdBb29vb0FLS0tLQUNpaWlnQW9vb29BS0tLS0FDaWlpZ0Fvb29vQUtLS0tBQ2lpaWdBb29vb0FLS0tLQUNpaWlnQW9vb29BS0tLS0FDaWlpZ0Fvb29vQUtLS0tBQ2lpaWdBb29vb0FLS0tLQUNpaWlnQW9vb29BS0tLS0FDaWlpZ0Fvb29vQUtLS0tBQ2lpaWdBb29vb0FLS1RJcGFBUEZ2Z2Y4QThsWStPSC9ZeFd2L0FLYmJXdmFhOFcrQi93RHlWajQ0ZjlqRmEvOEFwdHRhOXBvQUtLVElwYUFDaWlpZ0Fvb29vQUtLS0tBQ2lpaWdBb29vb0FLS0tLQUNpaWlnQW9vb29BS0tLS0FDaWlpZ0Fvb29vQUtLS0tBQ2lpaWdBb29vb0FLS0tLQUNpaWlnQW9vb29BS0tLS0FDaWlxLzJwUDc2ZjhBZmRBRmlpb2Z0TVgvQUQwVC92cWo3VkQvQU05VS93QytxQUpxS2grMVEvOEFQVlArK3FQdFVQOEF6MVQvQUw2b0Ftb3FIN1ZEL3dBOVUvNzZvKzFRL3dEUFZQOEF2cWdDYWlvZnRVUC9BRDFUL3ZxajdWRC9BTTlVL3dDK3FBSnFLaCsxUS84QVBWUCsrcVB0VVA4QXoxVC9BTDZvQW1vcUg3VkQvd0E5VS83Nm8rMVEvd0RQVlA4QXZxZ0NhaW9mdFVQL0FEMVQvdnFqN1ZEL0FNOVUvd0MrcUFKcUtoKzFRLzhBUFZQKytxUHRVUDhBejFUL0FMNm9BbW9xSDdWRC93QTlVLzc2bysxUS93RFBWUDhBdnFnQ2Fpb2Z0VVAvQUQxVC92cWo3VkQvQU05VS93QytxQUpxS2grMVEvOEFQVlArK3FQdFVQOEF6MVQvQUw2b0Ftb3FIN1RGL3dBOUUvNzZweXk1RkFFbEZGRkFCUlJSUUFVVVVVQUZGRkZBQlJSUlFBVVVVVUFGRkZGQUJSUlJRQTBtZ2pBb1BBcUdXZU9KTnp1RVgvYm9CSytpSGZ3bkF6N1Z5dnhJMEhWL0V2Z3ZWZE8wVFc1UERtclRRa1cycFFLck5CSi9DY05YbUh4Wi9iQjhCZkN3eldyNmovYk9ySjh2OW42ZCs5ZFcvd0JwdnVyK05mRi94WC9iWjhmZkVkcmkxMDZkZkMra3Q4dmxXTC82UXkvN1V2OEE4UlhqNHJOY1BoZEpTOTQrNXlUZzNOczVmTlRwY3NQNXBIWC9BTEpXa2Z0R2VKdmo5NHl0L0duaUJORDBHeDFXRzcxZTVzclNGRzFhNGlpU0pGUjl2M0dpUk4zKzlYNk5LZU9vcjhVdkRueEE4UytFZFkvdFhSOWN2YkRVTjI1cmlLZHZuLzMvQU8vL0FNRHI2dStFMy9CUkRVZE44cXg4ZTZaOXVpKzcvYU5pdTJYL0FJRkYvRi93Q3VIRFo3UXJ5NVorNmZSWno0YjVwbDBQYTRmOTVIOFQ5QUNSMXhtbHlObzRyZ1BoNzhaUENYeFFzdlA4UDZ4YlgzSHpSeHliWkkvOTVQdkxYZWwrT0srampPTTQ4MFQ4cHEwS3VIbDdPdEhsa1RVVWdJb3lLc3lGb29vb0FLS0tLQUNpaWlnQW9vb29BS0tLS0FDaWlpZ0Fvb29vQUtLS0tBQ2lpaWdBb29vb0FLS0tLQUNpaWlnQW9vb29BS0tLS0FDaWlpZ0Fvb29vQUtLS0tBQ3ZtdjhBWnkrRmZnM3hqNEExRFZkZThLNk5yZXB5K0lkWlNTOTFHeGl1SlhWZFF1RVQ1MlQrN1gwcFhpLzdKZjhBeVNlNi93Q3hpMXovQU5PVnhRQjFIL0NnUGhuL0FORSs4TS8rQ21EL0FPSW8vd0NGQWZEUC9vbjNobi93VXdmL0FCRmVnVVVBZWY4QS9DZ1Bobi8wVDd3ei93Q0NtRC80aWovaFFId3ovd0NpZmVHZi9CVEIvd0RFVjZCUlFCNS8vd0FLQStHZi9SUHZEUDhBNEtZUC9pS1ArRkFmRFA4QTZKOTRaLzhBQlRCLzhSWG9GRkFIbi84QXdvRDRaLzhBUlB2RFAvZ3BnLzhBaUtQK0ZBZkRQL29uM2huL0FNRk1IL3hGZWdVVUFlZi9BUENnUGhuL0FORSs4TS8rQ21EL0FPSW8vd0NGQWZEUC9vbjNobi93VXdmL0FCRmVnVVVBZWY4QS9DZ1Bobi8wVDd3ei93Q0NtRC80aWovaFFId3ovd0NpZmVHZi9CVEIvd0RFVjZCUlFCNS8vd0FLQStHZi9SUHZEUDhBNEtZUC9pS1ArRkFmRFA4QTZKOTRaLzhBQlRCLzhSWG9GRkFIbi84QXdvRDRaLzhBUlB2RFAvZ3BnLzhBaUtQK0ZBZkRQL29uM2huL0FNRk1IL3hGZWdVVUFlZi9BUENnUGhuL0FORSs4TS8rQ21EL0FPSW8vd0NGQWZEUC9vbjNobi93VXdmL0FCRmVnVVVBZWY4QS9DZ1Bobi8wVDd3ei93Q0NtRC80aWovaFFId3ovd0NpZmVHZi9CVEIvd0RFVjZCUlFCNS8vd0FLQStHZi9SUHZEUDhBNEtZUC9pS1ArRkFmRFA4QTZKOTRaLzhBQlRCLzhSWG9GRkFIenQrMFg4R2ZBV2dmQW54OXFPbStDOUIwL1VMWFJMcVdDNnROT2lpbGlkWW0yc2pxbnl0WHRuaHB0M2hiUldjN2liT0k1LzRBdGNWKzFGL3liajhTL3dEc0FYdi9BS0thdTU4Sy93RElxNk4vMTVRLytpMW9BMmFLS0tBQ2lpaWdBb29vb0FLS0tLQUNpaWlnQW9wTWlqSW9BWnZ6UmtkaG1tbm1zWHhENHEwcnd0cDh0NXFsL2IyTnBGeTh0ektxS3RGN2JqaENkU1hKQlhOcG1PM3J6OUtwWDJxVytuV3pTM004VUVhTHVhU1ZncXJYeVI4V1ArQ2hIaC9RRW1zdkJkbSt2WHEvSjlzbi9kV3FmK3pOWHhwOFMvano0MitMRThyZUlkYW5sc25iNWRQdC93QjFici93RmY4QTJldm5zWG5PSHcvdXg5NlIrbTVKNGZadG0zN3lySDJjUDczK1I5NC9Gejl1endUNEhNMWhvVHQ0bjFOZU50bzIyQkcvMnBmL0FJbk5mR0h4Vi9hcytJWHhXa2FLNzFSdEgweHYrWERUUDNTLzhDZjd6VjQvWEY2LzhVYlh3OXJiV005dTIwRlI1dS81dnJYeXM4d3htWXZscEg3WGhPRmVIK0ZZd3JZMzNwZnpTTzBvckgxZnhMQnBtakhVNDErMVJCY3F3YjcxVDZCcks2OXBjRjRzZmxKTC9DelY0TlREVitUMnMwZnBWRE1NQzZ2MWVsTFhsNXZrYU5GVkgxcXhSOWpYdHZ2L0FMdm1MdXFTNXY3YTBWR25uaWhSL3U3MjIxbDdDci9LZGYxekRUMTU0bWxvK3JhaDRldjRyN1RMNmV3dll2dTNGdkxzZGErbmZoUiszMTR1OEovWjdMeFhicDRqMDlmbGE0UWVWY3IvQU95dFh5Zk5lUVc4WG15VHh4UmYzM2JhbEtsN0EwSG5yUEU5di96MTNmSlhmaGNYaXNMNzFNK2N6ZkpNbXptUHM4VkdMZjhBNU1mcjE4TFAybVBBdnhidFVUUjlYaWp2aVBtc0xyOTFPdjhBd0grTC9nTmVzUlNiNDhqQkhiRmZoblphaXBrVzVzYmhSSWpibGx0NWZ1Ti92VjlCL0NiOXRueC84TnpGYlg5eXZpalMxNnhYelltVmY5bVgvd0NLM1Y5ZmhNL2pKOG1JanluNFBuZmhqWG94K3NaWFU5cEgrVS9Vc3RrZEFhQStSMHhYZ2Z3bi9iRjhCL0ZCNHJYN1ovWXVxdng5ajFBK1dXYi9BR1crNjM0Vjd0Rk9rNks2U0xJbnRYMU5PdlRyUjVxY2o4WnhlQXhXQXFlenhOTnhrV1VwOU1wMlJXNXhDMFVVVUFGRkZGQUJSUlJRQVVVVVVBRkZGRkFCUlJSUUFVVVVVQUZGRkZBQlJSUlFBVVVVVUFGRkZGQUJSUlJRQVVVVVVBRkZGRkFCU04wcGFZOUFGZWE2aXRtWHpaSTR0M3lydmJidXJ4cjlsQzdpaCtGOHNieVJwTEw0aTF2YWp0ODdmOFRLNHJvZmo3OEZOTCtQbnc0di9ET3BTUzJjcmZ2YkhVTGR0czFuT3YzSlVhdm5yOWgzOWhyVlAyZjcyKzhTZVBkWWJ4RjRwOCtXTFQ4WER5eFdjVFA4N3J1L2psKzgxQUgycFJSUlFBVVVVVUFGRkZGQUJSUlJRQVVVVVVBRkZGRkFCUlJSUUFVVVVVQUZGRkZBQlJSUlFBVVVVVUFlVy90UmY4bTQvRXYvQUxBRjcvNkthdTU4Sy84QUlxNk4vd0JlVVA4QTZMV3VHL2FpL3dDVGNmaVgvd0JnQzkvOUZOWGMrRmYrUlYwYi9yeWgvd0RSYTBBYk5GRkZBQlJSUlFBVVVVVUFGRkZNMzBBQlB5OUtqem50dEZLMG13Y212Ti9pZDhlUEJmd3J0V2s4UWExYjJ6L3cyeXliNW4vM1VYNWpXY3FrWVI1cEc5REQxc1RQMmRDSE5JOUhEREdNWXJrdkczeE44TWZEclRXdS9FT3MyMm1RS1A4QWx0Sjh6ZjdxL2VhdmgzNHIvd0RCUWJYL0FCQTA5bDRKc1YwUzFiNWZ0OTMrOW1aZjlsUHVyLzQ5WHlyNGs4VWF2NHUxS1hVTmMxSzUxUzlsKzlMZHk3M3I1bkY1N1JvKzdTOTZSK3U1SDRhWmhqN1ZjYy9ady84QUpqN1ErTGYvQUFVUlVQTFkrQXRMTHJ0LzVDbW9yaFArQXgvL0FCVmZJbmpuNGxlS1BpVGZmYmZFZXRYV3B5N3Q2cEszeUovdUo5MWE1ZWl2aXNUbW1JeFB4U1A2QnlmZy9Lc21oKzRwWGwvTkxjS0tLSzhmVm4ybnV4UVY1RnEyZ3c2ejhUSFc1akxXekRIL0FJNVhyMzhOVnhZVzMycnp2czBmbi84QVBYYjg5ZXZnTVg5VTVwV1Bsczl5WCsyWVU0emZ1S1Z6eFh4YW1xK0M3Q2ZSNUZhNjAyYy91cGUzMXJwViszajRVeC9ZZDNtWitmYjk3WlhvdDFaVzk1RnRuZ2ltVCs1TW0rbncyc1Z0YitYRkVzTVg5eEYrU3ZUbm0wWjA0ZTVxbWZNVWVENmxERVZweHJlNUtQTEh1anhUVExQUzdyUUFrMTdwOEV6ZmUzd3ltZFcvNzZycnJYd3UrbytDbnRVdW51M1Q1cmFRb3kvK2hWMmo2UHA3U2VhMWpiUEwvZjhBS1hmVnFxeEdicWR2Wm9NdDROZUc1L2JUVXVhTnRMbmlrVjlmK000OVA4T3Vrc2ZrYmhJLzBwcTZocVdsNmUvaGlPT1Y1V25DckovcytsZXpRNmJaMjByU3gyMEVNcmZlZEYydlQvN05zM244L3dDelFmYVArZXUzNTZQN1doMHArNytweWY2bVlwUG5saWZmMnY4QTNleFcwSFNrMFhTWUxaUmxsWDUvOSt0Q2lpdm02c3B6bHp6UDAvQ1VvVUtVY1BTZWtSZHRld2ZDcjlxangvOEFDZVdLQ3oxUnRVMHhmK1hDL3dEM3E3ZjlsL3ZMWGoxRmFVY1ZWdzh1YW5JNXN3eWZCNXBUNU1YU2pLSitsbndqL2J4OEZlT210clBYaTNoWFUzK1QvUzIzUU8zK3pMLzhWaXZwZlR0U3RkVnRvN2kwbWp1WVpWM0xKRSs1V3I4UFNkM2F1OStHdngzOGJmQ2E0UnZEMnVUdzJtN2UxbGNmdmJkditBdC83SlgxK0U0aGw4T0lpZmhXZCtGaWxlcmxVN2YzWmY1bjdIOVBwVHdlQml2alA0VWY4RkN0QzFzdzJYald4T2czT1A4QWo5aC9lMnJmK3pMK05mVi9oL3hacFBpblQ0cjdTTlF0Nyt6bFhja3R0S3JxMWZYME1YUXhNZWFuSS9Dc3p5WE1NcHErenhkSnhPZ29wbStuTFhhZUtMUlNaRkdSUUF0RkZGQUJSUlJRQVVVVVVBRkZGRkFCUlJSUUFVVVVVQUZGRkZBR1JyT3RSYUxhcE5KRkpMdmxXSlVpR1czTlZYL2hKMy82QlYzL0FOOVJmL0YxWDhkZjhnKzAvd0N2NkQvME9uclhnNHZGMUtWWGxpZGRLbEdjU1gvaEtKUCtnVmVmOTlSZi9GMGY4Sk8vL1FNdlB6aS8rTHFLbmJEWEg5ZHJmekczc0lEL0FQaEozLzZCdDMvMzFGLzhYUi93azcvOUEyNy9BTytvdi9pNlpzTkd3MC9ydGIrWVBZUUgvd0RDVHY4QTlBMjcvd0Mrb3Y4QTR1ai9BSVNkL3dEb0czZi9BSDFGL3dERjB6WWFiUyt1MXY1aCt3Z1Mvd0RDVHY4QTlBMjcvd0Mrb3Y4QTR1ai9BSVNkL3dEb0czZi9BSDFGL3dERjFGUlI5ZHJmekI3Q0JML3drNy85QTI3L0FPK292L2k2UCtFbmYvb0czZjhBMzFGLzhYVVZGSDEydC9NSHNJRXYvQ1R2L3dCQTI3Lzc2aS8rTG8vNFNkLytnYmQvOTlSZi9GMUZSUjlkcmZ6QjdDQkwvd0FKTy84QTBEYnYvdnFML3dDTG8vNFNsLzhBb0dYZi9mVVgvd0FYVVZGSDEydC9NSHNJRXY4QXdrNy9BUFFOdS84QXZxTC9BT0xvL3dDRW5mOEE2QnQzL3dCOVJmOEF4ZFJVN1lhZjEydC9NSHNJRC84QWhKMy9BT2diZC84QWZVWC9BTVhSL3dBSk8vOEEwRGJ2L3ZxTC93Q0xwbXcwYkRSOWRyZnpDOWhBZi93azcvOEFRTXZQemkvK0xvLzRTZC8rZ2JkLzk5UmYvRjB6WWFOaHBmWGEzOHdld2dQL0FPRW5mL29HM2Y4QTMxRi84WFIvd2swbi9RTHZmemkvK0xwbXcwYkRSOWRyZnpCN0NBdG40bWp1cjlMRnJXZTFtZU5wVjgzWjkxVC9BTExHdWdOY2ZiZjhqcFpmOWVjdi9vYVYyRmV4Z3EwcTBlYVJ5Vkk4a2h5OUtXaWl2U01Rb29vb0FLS0tLQUNpaWlnRHkzOXFML2szSDRsLzlnQzkvd0RSVFYzUGhYL2tWZEcvNjhvZi9SYTF3MzdVWC9KdVB4TC9BT3dCZS84QW9wcTdud3IvQU1pcm8zL1hsRC82TFdnRFpvb29vQUtLS0tBQ2szVXRRMEFSeXlLcTVZakh2WGpueFQvYXI4QS9DaFpyZlVOVWp2ZFRSZjhBa0hXSjgyYi9BSUVQNGY4QWdWZVRmdForRS9qcnJTWGtuaHJVRnVQQy93RHo1Nk4rNnU5disxL0UzL0FHcjgrdFNzN3ZUYitXRFVJSjdhOVZ2M3NWd3JvLy9BdDFmTDVubWxYQ3ZsaFQvd0MzajlkNFM0TndlZUwyMkl4TWY4SytJK2pmaTErM1g0MThlZWJaNkNxK0Z0TWI1ZHlmUGN0L3dMK0gvZ05mT0YvZlhPcTNUM041ZFQzbHhLMjlwcmlWbmR2K0JOVU5GZkJZakhWOFZMOTVJL3BqS3VIY3R5aW5iQ1VyQlJSUlhtSDB3VVVVVUFGWS9pK2Q3Ync1ZlN4czBUb255c2xiRlZkVjB4ZFYwNjR0SlcySkt1M2ZYWmg1UmhWaktaNXVaVXAxY0xWcDBmaTVUbmZobmYzRi93Q0d4TmN6dGNQdmY1bmJjMVluaWJXTDYzK0lXblcwVnhLTGR0bTVGZmhxbTBMdy93Q0pmQjl1MXJZaXp2SU4yOWZNTEFyL0FDcWJUdkJ1cmFoNGpqMWZWM2dSa09VaGhyNldLb1VxdFN0S1VYR1d4K1krMHpDdmdzUGdZd25HY1pMbTdhZVpmMS94MUZvMm94YWZIQ0pabTZ2TEo1Y1Evd0NCVkpwbmkrNXZOUVcybDAzS04veThXeitmRlNlSmRBdXRTdTFtVzFzdFFnN3d6THNiL2dMVno5dDhQTGhkYml1N1cyaTBhRld3d1M1YVhOUlRwWUNkSDN2aU5xK0t6NmpqK1NGNVF2MjZmZCtwditKUEgwR2lhbERwMFVEWHQ5TC9BTXNrYmF2L0FIMVZTTDRrQzExR0cxMU93YTBNcmJWZFpWa1dxL2l2d0RjNmxya1dxMlFnbW1VWWFDNVg1V3FiVGZDMS9OZVJQZTZYcEZuR3YzakhBQ3pWY2FXWCt3dVlWY1h4RjlmY1krN0htMDAwNVIzaVQ0aHRvR3RSYWV1bi9hbWRmbFpaZXRhOGQzck9wMk15aTBUUzVXKzQ4c20rc2ZWL0I5M2UrTXJYVTQwVDdQR29KTzdwaXUzNkxYQmlaNGVqQ0hzbys4ZS9sdERNY1ppSzMxMnBLTWIrN0gvZ25uK3JhUStrV0VzMnBlSnIySzU2b0lwQ0F6Zjd0WHZoM3FtcjZoWk8ycGxuaVZ2M1VzcTdXYXB0WjhPUzZuNGt0THByYUtlMVR1MGpiaC93R3VwWGFrWVJPdFZpY1RHZUhVSmU5S1g0RTVabE5hT1pTckp5aFRqcDE5N3pkeDFGRkZmTm42SUZGRkZBQlhSK0IvaVQ0bCtIR29wZWVIZFh1OU1sL2lTS1Q5eTMrOG4zV3JuS0s2YVZhZEdYTkE0Y1hnc05qcWZzc1REbmlmY0h3bC80S0plWDVGajQ4MDNhdjNHMVBUMTQvd0I1b3Y4QTRtdnIvd0FCL0ZMd3o4UjlQVys4UGF2YmFsQXcvd0NXTXVXWC9lWCtHdnhoejYxM0h3bDhOZVBkZDhRd1A0QXR0VC90RlcvNCtMQm1SSXY5OXZ1Lzk5MTlobCtkNG1VdloxSTh4K0djVGVIMlZRcHl4T0dxK3gveGJIN0poemtiUng2MC9HZU8xZUlmRFRRZmpSYStGYlpQRUhpWHcxL2FQOGZuNlJOY09VLzJtU2VKZDMvQUs2Lyt5L2lqL3dCREw0Uy84RUYxL3dESnRmZXhselI1aithYXRKVXFrcWZOekhvbEZlZWYyVjhWUCtobDhKZitDQzYvK1RhUDdLK0tuL1F5K0V2L0FBUVhYL3liVkdaNkhSWG5uOWxmRlQvb1pmQ1gvZ2d1di9rMmoreXZpcC8wTXZoTC93QUVGMS84bTBBZWgxUTFPd1hVN0thMmthV05KVjJzME1yUk9vLzJXWG11TC9zcjRxZjlETDRTL3dEQkJkZi9BQ2JSL1pYeFUvNkdYd2wvNElMci93Q1RhQVBPa3RQRzhuaURXdkNjK3AzTi9vMmcyeVh0cmNRdExGZDMrL2ZzdDVaZjlqYi9BQWZNMWM1OExQakw4UTlmOFJXOXRxTFd6bDdPV1crc3BvdDc2ZktxZkltMktMZjk3K0dWOTllMGYyUDhVZjhBb1pmQ1gvZ2d1djhBNU5vL3NmNG8vd0RReStFdi9CQmRmL0p0QUhFL0JMNGthLzRwOFU2aFphcHFqYXhGSEZ2WjRZSXZLaGZkOXpjcUl5ZjdqN21yM1pLOC93RDdIK0tQL1F5K0V2OEF3UVhYL3dBbTBmMlY4VlAraGw4SmYrQ0M2LzhBazJnRDBPaXZQUDdLK0tuL0FFTXZoTC93UVhYL0FNbTBmMlY4VlA4QW9aZkNYL2dndXY4QTVOb0E5RG9yenoreXZpcC8wTXZoTC93UVhYL3liUi9aWHhVLzZHWHdsLzRJTHIvNU5vQTJmSFAvQUNETFAvcitnLzhBUTZrVHJYR2FwWmVPWXZzTDY5ckdnWHVuZmE0dDBPbjZWUEJMdTNmMzJ1SC9BUFFhN05PdGZLNC8rT2VsUStBZlJSUlhDZElVVVVVQU1yNWN2dml6OFFmaWQ4U2ZIR2crR3ZGR2svRDNSL0I3S2s4MTNwWDlwWDExOG03ZjVXOU5xLzdsZlN0enJlbVdidXMrb1drTHI4ckk4NnBYai94ZDhBZkJUeG40MzBmVC9IR25hZS9palZJbit4eW8wdHZjVG92My93QjdGdCtYL2ZldWluN3N2ZWlZU1BKL0RIN1dlcUo4S1BpTGZYbmlqVGZGdXRlR292dEVGeHBtbVhHbTNEeGYzNVlwNHRxdC91YnE5RG4vQUdwcmJ3WkxvLzhBd21OaXVsYVZxbWkvMmxhNnM4L3lTeXFtNTdkbDJMODFkbm9ud0IrRnRuNEwxUFFkTThPYWIvWVdwUmVWZWVWSzd2Y0wvdHk3OXpmOTlWZDhTZkRMNGIvRVh3eHArZ2FycCttNjNvK2pORkxCYitmdSt6dEY5ejVsYmRXc25EK1VXcDR6OFFQMjFydjRlK0FQQyt0YWg0TGFIV1BFY3N2MkRUNXJxWFlrQy9jZVZvb25iNXY3cUkxZWgvczJmdEVMKzBEb21wenlhSGM2RHFHblMrVlBDNlMrVEwvdHhOS2lNeS84QVd0TFZkQytGWDdRZWh5NlZkSnBmaWZUOUhsOHIvUnA5cjJyci9kbFJsWlArQXZYUS9ETHdUNE0rSHVpUHBYZ3VDMnRySlczdWtOMDF3KzcvYmQzZHFVdlo4dkx5KzhMWG1QTlBIUDdWVnI4TlBFbmpEUmZFZWlyWjN1bDJxM2Vrb2wxOCtycTN5b3FmSjhqYjIyL3hVM3hKKzBkNGpzTlU4SmVGZEk4RHgzL0FJNzE2d2ZVbTArNzFQN0xhV3NTN04rNjQyZk8zenI5eEt0ZkV2NEg2TjhWUGl4NGE4VWVJOWMwbWJUL0FBdkw1dG5wY1Z1cVRlYi9BQWViSzB2L0FJNXNXdXorSjN3eCtIUHhVVzNzL0YybmFicVQycmZ1TjgvbFhFWCs0Nk9yTFJGUTkwZXA1THJmN1pkejRiOERlS05RMVh3ZDltOFMrR3J5M3NyN1RFMUZaYmY5Ny9HbHdxL04vd0I4VjZCYy9IcFlmaWxvL2c1ZE1pbWEvd0JIYlZXdVB0WHp4ZjdHM1pWbXkrQzN3cHNmQjk3NER0dEQwWk5IdmY4QWo2MHp6Tnp5di9mZHQrOW0vd0JxcXZnNzRBL0NMNFY2c21vYU5vdW02UHFkdkUxcjlwYThkcGZLYitCbWQ2T1dIOG9lOFp2N1BueDE4V2ZHL3dBM1U1UEJOcG9QaGVLV1czKzNQcTNtelBLajdma2k4cjd2L0E2OXlQU3ZOOVB2L2g1OENvdEY4TVdjOXRvU2F6Y3Y5Z3MvM3N2MmlWdm1mNS9tcjBDMHY3YS9pOHkxdVk3bGZ1NzRuVnF4a2lvbG1paWlzVFlLS0tLQUNpaWlnRE90ditSenN2OEFyemwvOURTdXhQM3Z3cmpyYi9rYzdML3J6bC85RFN1eFAzdndyMzh1K0NSNWRiNGg5RkZGZXlZQlJSUlFBVVVVVUFGRkZGQUhsdjdVWC9KdVB4TC9BT3dCZS84QW9wcTdud3IvQU1pcm8zL1hsRC82TFd1Ry9haS81TngrSmY4QTJBTDMvd0JGTlhjK0ZmOEFrVmRHL3dDdktILzBXdEFHelJSUlFBVVVVVUFGTTJVK2lnQ0xZVFhtL3dBVWZnVjRNK0t0czhYaURScmU0bDJiVXVWVGJOSC9BTHJyOHdyMHJIeThtbUVENmlzNVFqT1BMTTFvMTZ1R243U2hMbGtmbmY4QUZqL2dudHIyaFBOZWVDdFFYV2JUNzMyRzgvZFRyL3V2OTF2L0FCMnZsZnhKNFgxcndicUxhZnJtbTNlbDNxLzhzcnVMYTlmdHZ6ajFOY3A0NStHbmhuNGlXRFdYaUhSN1hVN1pzOFR4Yml2KzYzOE5mTVl2SWFOYjNxWHVuNi9rZmlYbUdBNWFXTlh0SWY4QWt4K0wxRmZjbnhiL0FPQ2R5TWs5OTRBMVB5bSs4dW1haTI1UDkxWlAvaXErUXZIUHd5OFVmRFRVSHNmRWVpM1dtUy93dkt2N3FYL2RmN3JWOFppY3J4R0YxbEUvb0RKK01NcXptUDdpcmFYOHN0em1LS0twVGFyQkRPOFg3eDJYNzNsTHUyMTVjWVNscEUrdnFWb1U0ODhpN1JXYWZFRm9QUDhBbWJaQjhyUHQvaXA4T3QyMHhmYjVtOWZuMlBFMit0UFlWZjVUbC90RERjM3hGK2lzbWZ4TGJSd1Nzc2NqUEY5NklydGFwSDhRMmFmZVp2bCs5OHYzUDk2bjlYcS95ay8ybGcvNWpTckhtMWk1Uyt1bzRsajhxQ0xmdmY4QWpyVlI5NjdsckwxSFhMYlRqTXl4dExMRjhrdTFQL1pxdWhIM3ZoNWpQSHo1WXhtcW5LVi8rRWtMbUFLa2J0SkMwai9OOXluYWJyRjVOY1dxenhRYkoxMy9BQ2Z3MUsrcGFmWi9NOEhrL3dDMzVWT2kxaTJhNW5qK3pNbjJiNWR5Ui84QW9OZHZMZVB1MHp4NDEvZmpLZUlOYWlzMy9oSWJSMWY1bVRhMnhrMnR2cDBtczIwTVNPM21KdmJZcU92enZYQjdDci9LZTkvYUdHNWVibk5DbVZseWVKb0JKREhGSEpONWtubGZkKzYxWGI3VllMQm9sazNiNWZsVkVYZFNkQ3JIN0pVY2RoNXhsS005aTFSV2ZEcmRwTTZyNXV6YzIzNTEyN0t0Mjl6SGRwdWpiZXRaeXBTaDhSMFVzVFNyZkRJbG9vcjJENFYvc3JlUC9pdzhVdHBwYmFYcGpOL3gvYW51aVhaL3NwOTVxMm9ZV3JYbHkwbzNQUHpIT01EbGRQMm1McThxUElNQVY2QjhOUGdMNDIrTFYwaTZCb3M3MnY4QUZxRnd2bFc2L3dEQXErN2ZoSCt3bDRKOERORGVhN0czaXJWRi9pdkYvY0ovdXhmL0FCVmZTbGxwdHZwMXNrRnBESGJRb3UxSTQwMnF0Zlg0VGg3N1dJa2ZoZWQrS2FWNk9WVS8rM3BmNUh5RjhLZitDZXVoYUFiZTk4WjNyYTdkcjg3V2NJOHUxVnYvQUVKcStyL0RYaFRTZkN1bnhXT2xXRnZZV2tYM1lyZUlJby9LdG9ya2V0Q2l2cjZHRW9ZYVBMVGlmaFdaWjFtR2JWUGFZdXE1RHRsTzIwdEZkcDRvVVVVVUFGRkZGQUJSUlJRQVVVVVVBRkZGRkFCUlJSUUFVVVVVQWNyNDUvNUJsbi8xL1FmK2gxSWxSK09mK1FaWi93RFg5Qi82SFVpVjhyai9BT09lalErRWZSUlJYSWJoVEtmVEtCby9QWFdQaGRxWGp6NDYvR1ZiYjRXNko0L2VXZUtLQ2JWdFIreXZadHNmOTZtNUhWditBZk5Yb1Nmc2tlSTlWMXY0T3dlS3JheDhTYVA0Y3M3aUxWdk91dDZMdSs0bnpmTktxZmRyN0gyLzdOSDRWMGZXR1orelBrMnovWmg4VmFYOE0vaWg0VDhQTmJlR0xIVjlSYTQwZTB0N25aYi9BR2YrT0w1ZjlVci9BT3pXTDhQZjJadkVjM2pydy9mTDhOL0Qvd0FLTkswNko0dFcvc3pVMXVuMXRXVFpzZFVSUGwvaStldnMyaW9qWGtMa1BoWHd4K3lINHowSHdiOFFQQyttZUY5RzhQUzMrby9iYlhXYlRVVlQrMHJmZi94Nnk3VTNSTFcvNEovWno4WFczakswMXpUUEJXa2ZCYlQ3RFRyaTN2SWRCMUg3VStxTXlmSTdwRWlMOG4rMzgxZlpYNFVmaFYvV0pCN00vSTdTcm14MUxTZFA4RTIzaE8wbStJRUhpUzMrMDYybjJyKzA5VVZiaEhkNVltaStYNWZtK2Q2KzB2RDM3TWttcGZ0RmVMZkhIaWp3NXBlcGFmY1dGcXVqeTN6TEw1VTZJM3o3UDRhK29OaTd0MjFhQ2NWVTY4cGZDRVlId0Y0aC9aYStKdmlyeGhiNjgzZ0R3dG9PdDJHdExkdHJPalg4RVgyeTMzLzNQSzgzZHMvdnkxRjRrK0crcCtOdjJqUGltc1h3dDBiNGl2NUZ1aXc2enFQMlg3Ty9sSjg2YmtkVy93RFFxL1FISjlLTVZQMWlRL1pueGhOK3lWNHMxSFFQZ3ZvK3ZRV1d0MlhoeThsbTFpSjd6ZWtVVEkyeUpkM3pTcWxldS9BVDRKM1B3ZjhBSG5qMXJQVExiUi9DV3BYTVV1bVdscEt2bEw5N2Y4bjhOZTUwbTJvbFdsTVVhZGhkbFBvb3JuTmdvb29vR0ZGRkZBak90djhBa2M3TC9yemwvd0RRMHJzVDk3OEs0NjIvNUhTeS93Q3ZPWC8wTks3R3ZmeTc0R2VaVytJZlJSUlhzbUFVVVVVQUZGRkZBQlJSUlFCNWIrMUYvd0FtNC9Fdi9zQVh2L29wcTdud3IveUt1amY5ZVVQL0FLTFd1Ry9haS81TngrSmYvWUF2Zi9SVFYzUGhYL2tWZEcvNjhvZi9BRVd0QUd6UlJSUUFVVVVVQUZGRkZBQlJSUlFBVXg2ZlJRQkQxckY4UWVGTks4VldFdGpxdGhiWDlwTXV4NGJxSlhWNjNTbUtUYlVjdDl5b1RsQ1hOQjJQanI0cy93REJQZnc3NGhlVys4RzNrdWczZi9QbEwrOXRtL0Q3eTE4Vi9FLzltM3h0OEtkU21tMXZTcm0xZ2I3MTlZL3ZZSC80Ri9EL0FPTzEreXpiUU1ucjJxdGVhZmI2bGJ2RmRRUlhFYjlWbFVNcHJ4Y1JsTkdyNzhQZGtmb3VVY2Q1bGwvTFN4SDcybjJsL21maFUrZ1cwMXJjUU51ZFoyM052YitPcS84QXdpOXQ1RXNlNlFlYnQrNXRYLzBGSy9VMzR1ZnNKK0NmSDNuM21obzNoVFUzK2ZmWkwrNGR2OXFML3dDSjIxOFdmRlQ5bGJ4LzhKNWJpUzgwdHRYMHFML2wvd0JOL2VydC93QnBQdkxYeVdLeS9HNForNzcwVDkxeWZpdmgvT3VXRlJjbFQrV1grWjRMSDRTdEVXNCthWGZPdTF0bTFhSnZDdHRMY1BKdWJlLzN2bFQ1di9ISzJxSzhCNGl2Q1ZtejlHamx1RHFSOTJFU2xzdkUrV05MYlovRHYzVlVtOFB4WFBtN3A1SWZQLzFxUmZjYXRpaW9XSWxINFRhV1gwWmZIN3hoWFBoS3p1WGRtYVQ1OXY4QWRxVzU4TlFYTFM3cFpQM3JJN0ovdTFzVVZYMXV0L01SL1pXRDVlWGtNV0h3dGJXeTNIbFNTSjV2M3Z1Ly9FMDl2QzFwSkFzVGJodGJ6VmY1ZnZmN24zYTE2S1ByTmIrWVA3THdmTHk4aGtSZUc3YU5JdHJNcnhTZWFycnRwK282UkxmVDIwbjJsazhodDIrdC9SOUUxSHhEZnhXT21XTTkvZXl0c1czdDRtZDMvd0NBMTlRZkNqOWdIeFo0c1dLNzhYVHI0Y3NXK2I3T2g4MjZaZjhBMEZLNzhOUXhtS2w3aDgxbTJhWkprdEMySW5GZjNmdEh4ODNoZHI2SmJLekVrODBzdTltKy9LNy9BT3p0cjZZK0VQN0Qzanp4NGxyTGZ3TDRYMGJiL3JieGY5SVpmOW1ML3dDTHI3NStGLzdOL2dMNFRSbytpYUxFYjdic2UvdXYzdHcvL0EyNXIxRVJnY1lBV3ZzY05rbnUvd0MweTVqOEp6YnhHbktVcWVVMCtSZnpQYzhEK0UzN0hYZ1A0WUdDNit4RFc5VmkrY1h1b29zckszK3l2M1YvQ3ZkNGJhT0ZOcVJyR24reFV4VTQ2Z2ZTZ0p0SFhOZlJVNkZPakhscHhQeVBGNDdGWStwN1hGVlhLUVZLdjNSUmdVdGRCd2hSUlJRQVVVVVVBRkZGRkFCUlJSUUFVVVVVQUZGRkZBQlJSUlFBVVVVVUFGRkZGQUdWcW1rVytyMjZRWE80b3JxNjdHMi9NdFZENFZnSC9MZTcvd0RBbDYzY0RQV2xBelhMS2hDY3VhVVNveWxFdy84QWhGYmYvbjR2Zi9BbDZQOEFoRmJmL240dmYvQWw2M09hWG1vK3FVZjVSODh1NWhmOElyYi9BUFB4ZS84QWdTOUgvQ0syL3dEejhYdi9BSUV2Vzd6UnpSOVVvL3loenk3bUYvd2l0djhBOC9GNy93Q0JMMGY4SXJiL0FQUHhlLzhBZ1M5YnZOSE5IMVNqL0tIUEx1WVgvQ0syL3dEejhYdi9BSUV2Ui93aXR2OEE4L0Y3L3dDQkwxdTgwYzBmVktQOG9jOHU1aGY4SXZiL0FQUHpkLzhBZ1MxZVgvSFdXOThJYVg0UGswclVyMjJlKzhVNlhwOXgrL1p0MEVzdTEwcjIzbXZGL3dCcDcva0IrQXYreDMwYi93QktLZjFTai9LSHRKSHBuL0NMUWY4QVAxZS8rQkxVbi9DSzIvOEF6OFh2L2dTOWJ2UHRSejdVdnFsSCtVT2VYY3d2K0VWdC93RG40dmYvQUFKZWovaEZiZjhBNStMMy93QUNYcmQ1bzVvK3FVZjVRNTVkekMvNFJXMy9BT2ZpOS84QUFsNlArRVZ0L3dEbjR2Zi9BQUpldDNtam1qNnBSL2xEbmwzTUwvaEZiZjhBNStMMy93QUNYby80UlczL0FPZmk5LzhBQWw2M2VhT2FQcWxIK1VPZVhjd3YrRVZ0L3dEbjR2Zi9BQUplai9oRmJmOEE1K0wzL3dBQ1hyZDVvNW8rcVVmNVE1NWR6Qy80UlczL0FPZmk5LzhBQWw2UCtFVnQvd0RuNHZmL0FBSmV0M21qbWo2cFIvbERubDNNSzA4TjIxaGVmYTFhYVM0VlBLVjVaV2ZhdGJTcjhvcHhJb0J4VzlLbkdrdVdKSE1Pb29vcllBb29vb0FLS0tLQUNpaWlnRHkzOXFML0FKTngrSmYvQUdBTDMvMFUxZHo0Vi81RlhSdit2S0gvQU5GclhEZnRSZjhBSnVQeEwvN0FGNy82S2F1NThLLzhpcm8zL1hsRC93Q2kxb0EyYUtLS0FDaWlpZ0Fvb29vQUtLS0tBQ2lpaWdBcE1DbG9vQVRBb3dLV2lnQmxSUzI2U295dkdycjcxWXBEMG9HbmJZOEMrTFA3SHZnSDRwbWE1bDA3K3h0V2YvbC8wNzkwemY3eS9kYjhhK01QaXY4QXNSK1BmaDYwcytseEw0bzB4ZjhBbHJacCsrWC9BSG92L2lLL1VmOEFnNFBlbUZTUjgyR0ZlUGlzcXcySjFsSDNqN2pKZU1zMnlaOHRPcnpRL2xrZmh4TkRKYlhEd1R4TkRNbnlQRTY3WFdtVit2SHhVL1owOERmRjZOanJla1JyZWRGdnJVZVhPdjhBd05mL0FHYXZqTDR1ZnNCZUtmQ2pUM25oQzZYeExZcjgzMlYvM1Z5cS93RG9MVjhaaThoclVIelV2ZWlmditTZUpXWFpqeTBzYis3bi93Q1MvZWZLbEJPYTd6d2Y4Q3ZIZmpqWHJqUjlLOE9YdjJ1MWw4cTUrMFJlVWtEZjdUdDkydnJuNFVmOEU3OUtzQkhmZU85VGJVN2dmTi9aOWlURkN2OEF2UDhBZWY4QThkcnpjUGxPSnhFdEluMG1iY2JaUGxNTHlxODh2NVk2bnhSNFE4RWVJUEhtcHJwL2gvU3JuVnJwdjRiZUxkcy8zMy9ocjZ6K0ZIL0JPM1VOUit6MzNqdlVoWnhmZWJUTEJ0emY4Q2wvK0pyN2E4SytCZEI4RmFmSFo2RnBWdHBscW5TSzJqVlJYUWhlTTVyN1hDWkZRdzY1cXZ2U1B3UE8vRW5Nc3gvZFlUOTNEOFRoUGg1OEdmQ1h3dHNCYmVIdEh0N0FBZk5JaWJwSlA5NS92TlhldXZIR0JTbkI0emlqYUNvOUsrbGhDTUkyaWZrbGF2VnhFL2FWWmMwdk1jbzRwMUZGV1pCUlJSUUFVVVVVQUZGRkZBQlJSUlFBVVVVVUFGRkZGQUJSUlJRQVVVVVVBRkZGRkFCUlJSUUFVVVVVQUZGRkZBQlJSUlFBVVVVVUFGRkZGQUJSUlJRQVY0dCsxRC95QXZBUC9ZNzZOLzZVVjdUWGkzN1VQL0lDOEEvOWp2bzMvcFJRQjdUUlJSUUFVVVVVQUZGRkZBQlJSUlFBVVVVVUFGRkZGQUJSUlJRQVVVVVVBRkZGRkFCUlJSUUFVVVVVQWVXL3RSZjhtNC9Fdi9zQVh2OEE2S2F1NThLLzhpcm8zL1hsRC82TFd1Ry9haS81TngrSmYvWUF2ZjhBMFUxZHo0Vi81RlhSdit2S0gvMFd0QUd6UlJSUUFVVVVVQUZGRkZBQlJSUlFBVVVVVUFGRkZGQUJSUlJRQVZtNnZmTnBtazN0MnE3M2dnZVlLMyt5dWEwcXFYVnBGZlcwdHZLQThVcU1qcjZxMUFIZ0dsL3RLYWdmaDNlNnByZWlXMmwrSUVpYTR0YlF5czF2ZVJiOW9kSDl2NGxycjlZK1BlbjZQZGFtaTZKcW1wV21qS2o2cnFGb2tYbFdlNU4vS3U2dS93QXY5eFdyYzF2NEsrRC9BQkg0WXN2RG1wNk90enBWazIrMVI1WDNSTi9zdnUzVkRyUHdSOEtlSU5UbXZMcTB1bGFmYXQxYlcxN0xGYjNXejd2bXhLMjEvd0RnVkFIYjJGOURxVmxCZVd6YjRaMVYxYi9acTM1ZFEyMXJGWndKQkFpeHhScnRSRi9ocXpRQjRwOEU0d1BpeDhidVArWml0ZjhBMDIyOWUwZVhYalB3UC81S3g4Y1AreGl0Zi9UYmExN1J1b0h6TjdoZ1V0RkZBaE1DbG9vb0FLS0tLQUNpaWlnQW9vb29BS0tLS0FDaWlpZ0Fvb29vQUtLS0tBQ2lpaWdBb29vb0FLS0tLQUNpaWlnQW9vb29BS0tLS0FDa3dLcGFscU52cE9uWGQ5Y3RzdDdhTnBwWC91cW8zZnlyaGJiNDdlRzcyM2luZ2kxYWFLVmQ2T3VsWEh6TC93QjhVNHhsUDRRUFJ2d28vQ3ZQL3dEaGR2aDcvbjIxbi93VlhIL3hOSC9DN2ZEMy9QdHJQL2dxdVA4QTRtajJVLzVRUFFQd28vQ3ZQLzhBaGR2aDcvbjIxbi93VlhIL0FNVFIvd0FMdDhQZjgrMnMvd0RncXVQL0FJbWoyVS81UVBRUHdvL0N2UDhBL2hkdmg3L24yMW4vQU1GVngvOEFFMGY4THQ4UGY4KzJzLzhBZ3F1UC9pYVBaVC9sQTlBL0N2R1Ayb2YrUUY0Qi93Q3gzMGIvQU5LSzZmOEE0WGI0ZS81OXRaLzhGVngvOFRYbW54ejhiMm5qWFMvQ1VHa2FmcTF5MWg0bTAzVXA5Mm5TcHNnaWwzTy96SlQ5bFA4QWxBK2kvd0FLUHdyei93RDRYYjRlL3dDZmJXZi9BQVZYSC94TkgvQzdmRDMvQUQ3YXovNEtyai80bWw3S2Y4b0hvSDRVZmhYbi93RHd1M3c5L3dBKzJzLytDcTQvK0pvLzRYYjRlLzU5dFovOEZWeC84VFI3S2Y4QUtCNkIrRkg0VjUvL0FNTHQ4UGY4KzJzLytDcTQvd0RpYVA4QWhkdmg3L24yMW4vd1ZYSC9BTVRSN0tmOG9Ib0g0VWZoWG4vL0FBdTN3OS96N2F6L0FPQ3E0LzhBaWFQK0YyK0h2K2ZiV2Y4QXdWWEgvd0FUUjdLZjhvSG9INFVmaFhuL0FQd3Uzdzkvejdhei93Q0NxNC8rSm8vNFhiNGUvd0NmYldmL0FBVlhIL3hOSHNwL3lnZWdmaFJqMnJ6L0FQNFhiNGUvNTl0Wi93REJWY2YvQUJOSC9DN2ZEMy9QdHJQL0FJS3JqLzRtajJVLzVRUFFxSzRmdzc4VTlDOFRhOHVqV24yMkxVSGdlNFdHN3M1WXQwU3NpczN6S1A3NjEzRlRLUEtBVVVVVXdDaWlpZ0Fvb29vQUtLS0tBUExmMm92K1RjZmlYLzJBTDMvMFUxZHo0Vi81RlhSdit2S0gvd0JGclhEZnRSZjhtNC9Fdi9zQVh2OEE2S2F1NThLLzhpcm8zL1hsRC82TFdnRFpvb29vQUtLS0tBQ2lpaWdBb29wajBBQklJcE9GSHFLVGVBT2xjbDhSdmlMcEh3eThNWG11YTNkTGJXTnFoZG1QM20vMlY5V3FscnNWVHBTclRVSUwzanNBY1VicStMSC9BT0NtSGh0RytYd2ZxenAvZjgyTC9HbWY4UE1QRC84QTBKdXJmOS80djhhNlBxMVhzZldMaExPMy93QXcwajdXM1VicStLZitIbUhoL3dENkUzVnYrLzBYK05IL0FBOHc4UDhBL1FtNnQvMytpL3hvK3FWdXhYK3FHZWY5QTBqN1czVWJxK0tmK0htSGgvOEE2RTNWdisvMFgrTkgvRHpEdy84QTlDYnEzL2Y2TC9HbjlUcmRnLzFRenovb0drZmEyNmpkWHhUL0FNUE1QRC8vQUVKdXJmOEFmNkwvQUJvLzRlWWVILzhBb1RkVy93Qy8wWCtOSDFTdDJGL3FqbmYvQUVEU1B0YmRXSjRwOFc2UDRLME82MWpYZFJ0dEswdTFHNmE3dW4yUlJEL2FhdmtUL2g1aDRmOEEraE4xYi92OUYvaldkcjMvQUFVUThJZUp0R3ZOSzFYd0pxVjVwOTNFMFU5dkxMQXlPamZqUytwMXY1Ui82b1o1L3dCQTBqMHI0Ty9HUHdOWi9GajRxcko0czBndHJQaVN6WFQxUzhSbXVYYlQ3ZGYzVzM3MWZUYVB1cjhkdjJkZForRS83UHZ4YTE3eHhiK0ZkYjFhUjVXL3NXMnVKSWovQUdjamZlL2orWnY5cXZyWC9oNWg0ZjhBK2hOMWIvdjlGL2pSOVVyZnlqZkNHZC85QTBqN1czVWJxK0tmK0htSGgvOEE2RTNWdisvMFgrTkgvRHpEdy84QTlDYnEzL2Y2TC9HbjlVcmRoZjZvWjUvMERTUHRiZFJ1cjRwLzRlWWVILzhBb1RkVy93Qy8wWCtOSC9EekR3Ly9BTkNicTMvZjZML0dqNnBXN0IvcWhubi9BRURTUHRiZFJ1cjRwLzRlWWVIL0FQb1RkVy83L1JmNDBmOEFEekR3L3dEOUNicTMvZjZML0dsOVVyZGcvd0JVTTgvNkJwSDJ0dW8zVjhVLzhQTVBELzhBMEp1cmY5L292OGFQK0htSGgvOEE2RTNWdisvMFgrTlA2cFc3Qi9xaG5uL1FOSSsxdDFHNnZpbi9BSWVZZUgvK2hOMWIvdjhBUmY0MGY4UE1QRC8vQUVKdXJmOEFmNkwvQUJvK3FWdXdmNm9aNS8wRFNQdGJkUnVyNHAvNGVZZUgvd0RvVGRXLzcvUmY0MGY4UE1QRC93RDBKdXJmOS9vdjhhUHFsYnNIK3FHZWY5QTBqN1cvQ2o4SytLditIbUhoL3dENkV6VnYrLzhBRi9qUi93QVBNUEQvQVAwSm1yZjkvd0NML0dwK3JWdjVSZjZvNTUvMERTUHRMT09wQStsT0dDdGZFMy9EeTdRUCtoUDFiL3Y3Ri9qWDBUOERmakJMOFovQzc2My9BTUkvZjZEYUZ0c0gyNWwvZmorK3UzK0dvblJsRDRqek1ka2VZNWJEbnhkTGtSNm5SVEVwOVluaGhSUlJRQVVVVVVBRkZGRkFCUlJSUUFVVVVVQUZGRkZBSFBmRUwva1JQRWYvQUdEcmovMFUxZUZlQ1A4QWtUOUMvd0N2R0QvMEJLOTErSVgvQUNJbmlQOEE3QjF4L3dDaW1yd3Z3VC95SnVnLzllTnYvd0NnSlhmaHZoa0J0VVVVVjJFQlJSWGxYeCs4VytNZkN1aDZmUDRPc2Z0OXc4LytsUlc3UmZidksvNmQwbCtWbXFBUFZhSytaRS9hQjhSemVDL0RWM290ekJxdDllNjB1bTN6NjNZdFlYRnY4LzNIaVhldTcvYnJzOVMrUGVvVzBYaWk4czlEdEp0TThOU3BGZmZhTHg0cmlWLzQvS1RaL3dDaDdhT1lEMmlpdkZJZjJnYjdVdkdHcTZWcCtneGZZdE8wZURWNWJpNHVtU1Y0cGQveUpFcVA4M3lWWCtHbjdTRjU0LzE3UjdadkN0M2JhWnF5czhGMmtWeCs2Mi84OWQwU0wvM3c3VWN3SHVkRmVUL0VYNGkrS1BEM3hWOEgrSHRLZzAxOU0xUlpYbmU0Wi9OK1ZQNFBrcml2Qm43UW5pVk5OMHk4MTdUTFM4c3IvWFpkS1c0aGw4cVZmN2orVnMyN2YrQjBjd0gwYlJYZ1gvRFQ5MWMrS05Uc2JId25kM09uMkdwcHBzc3lSWEhtNy83L0FNc1hsZjhBZmIxdS90TGZFTHhMNEE4QjJsOTRYYTBodmJxK2d0V2x1MTM3RVo5djNOajBjd0hzRkZmTy9pZjlwUFUvQXllUi9aRWZpZE5ObGd0ZFd2b1ovS2VLV1g1ZitlU0svd0R3Q3V3c1BqSHF2aVRXZFZnMFBTTlAreWFSUEZGZFBxZW8vWlpmbS9qVDVIWC9BTDdlam1BOVlvcndLLzhBMm9ybFBGR3E2ZnAvaFc3djdMUzd4YktkMGl1SGxaMi9qVGJFOFczNS93Q04xcjNxR2J6b2tsMnNtNWQreDZJeTV3SDBVVVZZQlJSUlFCRjRHLzVMcHBuL0FHQXJyLzBiYjE5QVY4LytCdjhBa3VtbWY5Z0s2LzhBUnR2WDBCWGxZajRpd29vb3JFQW9vb29BS0tLS0FDaWlpZ0R5MzlxTC9rM0g0bC85Z0M5LzlGTlhjK0ZmK1JWMGIvcnloLzhBUmExdzM3VVgvSnVQeEwvN0FGNy9BT2ltcnVmQ3YvSXE2Ti8xNVEvK2kxb0EyYUtLS0FDaWlpZ0Fvb3BEMG9BVHJUV3AzYXNmeEY0Z3NmRFdtWFdvYWhjeDJscGJwNWtzMHJZVlZxa3JqakdVNWNzU3A0eThaYVg0RThQWHVzYXhkSmFXVm1tK1dWNi9LMzlwRDlvYlZmang0b2FYZEphZUhySnR0alovK3p2L0FMVmJIN1VQN1NWOThjdkViMk9ueXZiZUZMS1QvUjRmK2ZoditlclY0UWpiRGc5Szk3Q1lUbDk2Ui9UUEJIQjBNRkNPWVk2UHZ5K0h5RzBVVVY3QiszQlJSUlFCUzFmWExIUllVYTluOGhHL2lJck5pOGZhSGRTeHFMOWR6ZjdEaXNyNG5XdHhxRnJaeHdIRG1RTVgyN3R0WU9yZUdkWXMzdHZ0bHo5cjAxaXZtRzBnalIxLzhkcnlLOWVyQ1h1bjVobXVlNXBoc2RPbGg2WE5UamJwL3dBRTlRU1NPWUt5dHZqYW5ydDNkd3RlYytMbXU0WXJCYk4vK0pWdHdTKzRMbi9hMi9OVS9oTjlSTTkyMXRLaGc4djVZNGZNS0szMWtxL3JUNXVYbE8ySEU4L3JIMWQwUDYveU8rNjlUUzV6eDJyelRUcGJWNEpXMVNhNlRWa2w0QTM3c2UzOE5hbmlTV1pqWWVhOXlta3NvOHh6dTNkZWQyMm45YzkzbU5hZkVjcFVwVDlsK1A1OWp0d3UzcFNFNXJoZE9rV1BXNFJvVFROWllIbjc5eFQzKzlWUzFtaGE3dWsxdDdoTDNkKzVWREpuSCt6dHFmclJNdUtIQ04zUy9IVDc3SG8zQkJOSmpnVjVYcGNzOXg0UDFOdk1sZGpjTHRabWJkV2hxMm1tMDhOYWJld1NYQXZTdzNONXBOUDY1N3ZOeWtRNGxxVlljOGFIUysvbjZIZXZxTU1Gd3R1ejRsZjdxYmFzckl5akFPSzRXNmtuYnhWcFR1MHZsZVNHYjlhNTNVN3l5MWJ4Q0xlR1NUVHJlTS9QS3hkMmY2Vk04WHlkRE90eFBVbzMvZDliTFd4NjJyQWNIa1VxaFMvUEMxNXQ0bm51b3BMRllHM2FUdCs5TjVteG03N2l2elZxK0F4ZUdlNDNTbzlrdlFSZVl5SzMreXpWckRFdHk1T1U2OE54SFBFWXlPRWRMK3Y4anNxS0tLOUUrN0NpaWlnQW9vb29BQWNVb0hyUVNwT2E5MS9aZC9acnZ2amo0alcrMUJXdHZDZGxKL3BOeC96OE4venlXc2FsU05LUE5JOFBOczF3MlRZYVdKeEV0SW01K3lmK3k3Yy9HTFY0dkVHdXdORDRVdFpQdVA4QTh2akwvQ3YreFg2WmFicHR2bzloQmFXVUN4UVJMc1JFWENxdFYvRCtnYWQ0WDBpMjAzVGJXTzFzYmVOWTRvb2wycXExcXVSZzg0eDNyNWV0V2xWbGRuOGQ4UThRWWpQc1c2MVQ0UHN4SkYrNVQ2WWxQcmxQbHdvb29vQUtLS0tBQ2lpaWdBb29vb0FLS0tLQUNpaWlnRG52aUYveUluaVAvc0hYSC9vcHE4TDhFLzhBSW02RC93QmVOdjhBK2dKWHVueEMvd0NSRThSLzlnNjQvd0RSVFY0WDRKLzVFM1FmK3ZHMy93RFFFcnZ3M3d5QTJxS0tLN0NBckg4U2VEOUQ4WVFKQnJta1dXcXhSTnZWTHVCSmRuL2ZWYkZjRjhadmlSYy9EVHdwRnFkblp4M2x4UGRSV3F2Y2IvS2kzZnh5N2Y0YUFOcWI0YitGYm5RNHRGbDhPYVcrbFJONXEyTDJxZVVqL3dCL1pSZWZEcndyZjM5dmZYUGg3VFpyMkRiNVZ4TmFvN3JYaXVtL0hMWE5FOFYvRUJ0ZTFYVDcvVDlHczRKWUVzWW44cFdaRS91NzIvOEFINng3ejlwUHhqYzZYNDFzWXJiU2JEVmRHc1l0UXRidEY4MU5yUDhBeHhMSy93QTMvQS8rQVZselFBK2tvZkRlbFcycVhHcHhhZmFKcUZ4RXNVOTJrU2ViS2kvY1IzcWxwWGdEdzFvT3FTNm5wK2c2YllhaEw5Njd0N1ZFbGIvZ2RlR2VKUDJqZGU4TitIN1JiUDhBc2pWZFl0ZEppMUsrODJKNGtkVy91TzBxTC80KzMrNVhwMTU4UmJtLytDTCtNWUlQczEzTHBuMjFZVWI3cmJOMzM2T2FJSFc2MzRQMFB4UGNXaytyNlJaYWxMWk41c0V0eEFydkUvOEFmVCs3VVNlQnZEeVd0dmJMb2VucGJ4VC9BR2lLSDdLdXhKZjcvd0R2VjRwYmZIdnhSZWEzbytoMk5ucHZuVCtHZjdhbHU3N2Mvd0F5L3dBR3hkbGVpK0QvQUloWDNqbjRRSjRvdG80TERVSmJPV1ZFZjU0bGRkOVZ6UkE2T2J3QjRYdWRiL3RxWHc5cHMycTd0LzI1N1ZmTi93Qys2ME5ZMEhUUEVOcWx0cXVuMjJwVzZNa3F3M2NTT2lPdjhmelY4MWZDdjR6ZU52OEFoRXZEa3V0YXJiYXJxdmlPK25paTFDK2c4cTBzMFYvdWJGMmJ2Kys2dGVOdmo5NGwvc0czK3h0SFlYdGw0cHRkS252ckZkOXZlUk5LbS95dDIrcDVvQWU0YXI4THZCMnQ2aTk5cUhoZlNiKzlmYnV1TGl6aWQyMi9jL2dxeGY4QXc2OEs2cmZ4WDE1NGMwMjV2WXRubFhFMXFqdW0zN256MTg2K1BQMml2Rmw1NGZ1OVEwaTUwM1FZclh4RmE2VjlrMjc3NTArMElqdSs3NWZuVC9Zcm9OVi9hWjhRdytLTlRzYkh3NUg5azB1Nml0WlV1LzNVdDF1L2pTVm5SVi83NGFqbWlCN2JlZkQzd3ZmNnltcjNQaDdUWnRUaTJiYnQ3VkhsVC9nZGRCWGxuZ1A0bDYvNDU4ZWVKZEsremFmWWFab2s4VVRiMVo1WmR5STM5L2FuMzY5VHFnQ2lpaXJBS0tLS0FHZUNQK1M2YVovMkFyci9BTkcyOWUvVjRENEkvd0NTNmFaLzJBcnIvd0JHMjllL1Y1RmY0aXdvb29yTUFvb29vQUtLS0tBQ2lpaWdEeTM5cUwvazNINGwvd0RZQXZmL0FFVTFkejRWL3dDUlYwYi9BSzhvZi9SYTF3MzdVWC9KdVB4TC93Q3dCZS8raW1ydWZDdi9BQ0t1amY4QVhsRC9BT2kxb0EyYUtLS0FDaWlpZ0JwSXhTVW93S3JYRnhIYXhQTEkyeEYrZGkvOE5BMHViUkZmVk5VdDlJdFpidTZtU0MyaVhjOHNyYlZWYS9ORDlyajlxTzUrTU9yUytIdEJta2g4S1dzdnpTcC95K012OFgrN1c1KzJGKzFiUDhRcjI0OEgrRkxveDZCQTJ5OXZJVy80KzIvdUwvc2YraFY4blkzSDVSeFh0NFRDZmFrZjBQd053YnljdVpZK1B2ZlpqK29sRkZGZTBmdjlyYUJSUlJWakNpaWlnQW9veDg5QjIvZHFER2NWeWJGRmRYczViNTdSWkZhNFJkekQrN1RkUDFtejFHZVdPRjk3Uk5pVGN2OEFGWEhXZWtRMjNqbTdlZTBZMjJQM2VFWmszVXZodnc1Rk5xT3NQZFc3c0drYnl5KzRLRGsxNWNhOVcvS2ZuRWMzeDg2NlVhTWZpYSs0OUIvZHVuYW1SUEhubGxjVjV2YjJPc0h3eGRSUXRNR1NmSlh2c3BOSHNMcDlVdFBJM1FzbjMvSXRwRnovQUwyNXFQclVuS1B1R2k0aXErMWhUK3JmRWVreVNSb0hkaGlQMHJrYklhVHJ0OU9sbmY2aUd6dFkyN3NxZitnMTFOL2FwZDJVc1pHOVdYN2xjRDRmMEZ0STBYVXBVc21hN0xISDNsYmJWWWo0b3hOOCtkVDJ0S25HbEYwOVpTL3BIYmFUcE5ubzF2NU5wd3Y4VE0zek5XaTd4cGpQSTlxOGZ2TEsvVVdFMW1zMGJLNEVxUlc3THMvM21iN3hycU5UZ2svdDJLYlVvNTV0UGFQNWRpc1ZWc2VpMU5QRSs1OEJ3WVRpRGtwU2hERGN2TGIwTzIrVjZhanc0Mkx0elhHR0NlVFE3d2FWRGR4TVdHd3kvTHVIK3pXRHBXbTNieldiUWI3ZTdSMTNHTzJrVi84QWdUTTIyaVdMdnkrNGROWGlDY0t0T0VjUHpjMzlhSHFkQUdhWW03YW03NzlQNUZlb2ZvTk9GTisveWhSUlJWbTRVVVVVQUw5Mms1bzcrdGVsZkEzNEo2ejhjdkdNV2wyQ3REcDBYelgxNy9EQXYveFZZMUtrYVVlYVI1bVlaaFF5NmhMRVlpWExHSnBmczgvczhhejhlUEV2a1FiN0hRclgvajcxQmsrVmY5aFA3elY2NzhhZjJPdjJrb0lMTFR2Qlh4S3Q5UzhGV2JMczhPYWQvd0FTaHZLMy9kT3ovV3QvdE85ZmRudzErRzJqZkREd3hhYUpvMXF0dGFRSmpnZk03ZjNtL3dCcXVzWlNWNjRyNW5FVjVWcEg4Z2NUOFRWOCt4TGIvaEw0WW5sWGhYd1o0L3RQRG1tUXA0dnNkTFNLQkUreFM2Q3J0Qjh2M2QzMml0bi9BSVJUNGlmOUQ3cHYvaFBmL2RGZWhEcFMxeG54SjU5L3dpdnhELzZIN1R2L0FBbmYvdWlqL2hGdmlILzBQMm5mK0U3L0FQZEZlZzBVQWVmZjhJdDhRLzhBb2Z0Ty93RENkLzhBdWlqL0FJUmI0aC85RDlwMy9oTy8vZEZlZzBVQWVmZjhJdDhRL3dEb2Z0Ty84SjMvQU82S1ArRVcrSWYvQUVQMm5mOEFoTy8vQUhSWG9ORkFIbjMvQUFpM3hELzZIN1R2L0NkLys2S1QvaEZ2aUovMFBtbS8rRTcvQVBkRmVoVVVBZWZmOEl2OFFIUk52anJUMFlmZS93Q0pCOTcvQU1tS1ArRVcrSWYvQUVQMm5mOEFoTy8vQUhSWG9ORkFIbjMvQUFpM3hELzZIN1R2L0NkLys2S1ArRVcrSWY4QTBQMm5mK0U3L3dEZEZlZzBVQWVmZjhJdDhRLytoKzA3L3dBSjMvN29vLzRSYjRoLzlEOXAzL2hPL3dEM1JYb05GQUhqL2pmd3o0L2k4SGE2MC9qalQ1b1ZzTGplaTZCczNMNVRmeGZhSzRyd1QveUp1Zy85ZU52L0FPZ0pYdW54Qy81RVR4SC9BTmc2NC84QVJUVjRYNEovNUUzUWYrdkczLzhBUUVydncyMGdOcWlpaXV3Z0tpdkxPQy90NVlMbUNPNXQ1ZmthS1pkNlBVdGVXZkZUNGthcjRTOFVhSnBGdExZNkpaWDZ5dkxyMnB4YjdlM2RmNFB2cDh6L0FPMjlRQjMxdDRWME96dDVZSU5JMCtHR1Zka3NNTnFpSXkvM0grU21XZmd6UWJDS1dLejBQVGJhS1Zka3FRMmNTYjAvdVA4QUpYaFZuOGUvR09wWEhocXhnczlOUjlTMWFYVDIxTjRKZkt1b2xSOWx4RW0vL3dCbnIwRDRHL0VYVmZpRnBmaUJkWGl0a3ZkSTFhNDAzemJkWFJKZHY4ZXplKzMvQUw3cDgwUU93ZndINFhlSzNpYnc1cERwYi9KRWoyTVg3ci9jK1N0Sk5LczBzUHNLMmNDV1czWjluOHBmSzJmM05sZUZUZkcveGZEOFFYOEFMcGxpL2lWci9lczNsUDVYOW0vODlmdi9BSHY0UHYxVTFYNDkrSmJiKzFibGY3THRyMnkxSDdGRjRXbWdiKzBMMU4vMzBmZi9BQi83alV1WUQzdE5CMHhKVWxUVDdSSlZpK3pxNlFMdlZmN24rN1ZpMnNMYXp0ZnMwRnRGRGIvYzhsRjJKLzN4WHoxNHEvYU4xend4ZS9FTzJ1NE5Oc0xqUm9JTGpTYmU3VmtsbjNKOCsvNS9tLzRCWFMrRFBpWDRxOFovRW00ME5aZE5zTlB0ZE10YjFuK3hzMHNyeS9mVC9XMFhBOVZtOE42UE5wdjlueTZWWXZwLy9QbzhDK1YvM3g5Mm4vOEFDUGFVbGxiMmY5bVduMlNCdDhWdjVDYkltLzJFcnpyNG5mRUx4RG9QeEI4S2VITkYrd3d3NnN0dzg5eGR3UExzMjdObXphNlY1NWJmdE02MU40STArZWRiR3cxdTYxTzYwMzdYTEJzc2YzRHVtOTNhVlBLMzdQNzdWUE5BcytnTG53Zm9ONWVQZVQ2THBzMTIremRjVFdhdS93QXYzUG4yVkxjK0dOSXZOU2l2cDlLc1pyMkwvVlhFMXFqeXIvdVBYemI0Vi9hVzhZK0o3WHdWQkZGb2lYdXI2eGNhVmMzRVVUU3hiSWtkOTZmT245eXJ0bjhlUEhVTms5OWVmMk5jeFd2aUwreFpZb2JPVkh1RS93Q2VxUDV2eS84QWoxVnpSSVBwQzJzTE96bGxuZ3RvSVpaVy9ldWtTSTcvQU8vVml2bVM1L2FROFl2NCsxUFNJTkZ0TFpMWFVWc290T3UyaVNXZUwvbnJ2YTRSdisrSW1yNlloZG5pUm1YWTlFWkFQb29vcXdDaWlpZ0JuZ2ovQUpMcHBuL1lDdXYvQUViYjE3OVhnUGdqL2t1bW1mOEFZQ3V2L1J0dlh2MWVSWCtJc0tLS0t6QUtLS0tBQ2lpaWdBb29vb0E4dC9haS93Q1RjZmlYL3dCZ0M5LzlGTlhjK0ZmK1JWMGIvcnloL3dEUmExdzM3VVgvQUNiajhTLyt3QmUvK2ltcnVmQ3YvSXE2Ti8xNVEvOEFvdGFBTm1paWlnQXBEMHByMHlRNG9BWkxJSWtkbklWQjNKcjRFL2JML2F5ZlZyaTc4QytFTHNmWlYzUmFscUVMZGY4QXBrdi9BTE5YUWZ0bWZ0Wi8yYWJyd0w0UXVndDhWMjM5L0UzK3AvNlpML3RWOEY5T2E5akNZWG05NlIrNzhEY0crMjVjeXgwZmQrekg5UW9vb3I2QS9vK01WRmNxQ2lpaWdvS0tLS0FGM1o3VWJxRkhGUVhjN1cxdkpNbzNNcS9kcWVZenExRlNoenlKZ2NVZGF4VDRpTU1FYnpSeG5lTndWV1Zhc1FhOHQ0NkxCQTByc3U3WldIdDRubFJ6VER6OTNtTklnanJSV05jK0o0WWJwb3ZLYmVuM3ZtclhqbFdhRkdYK0tyalVqUDRUYWhpY1BYbEpVMzhKS3NXNGRhcWFpODBGcTd4Y09wK1dxODJzcmF5WEFhTnZMaFg1bUZWb1BGRnRNVzNJeWJWM2JrYmRVU3FVL2hPU3ZpOEhQOTNmbGtEMzg5ck9vbFpuamFQZHY4ditPb0k3M1VMb3I4elJEeWQzM1A0cTBadFc4aUh6SklHUmZsMi9NdnpWV2Z4RkhBelJ5d01rNjdVOHFzWmN2OHg0OVQyWE43OVo4cG9hZTBrOXFyU25NcmZlK1dyRlpSOFFlV2t1K0J4TEV5cXlmNzFJZGN3eFJvV2hsVmxYYjk3NzFhcXBHRWVROU9sak1IQ0VZWE5iSEZBR1R4V2IvYkRMTzhmMmR0cWZlWkczYmFqc1BFc1Y1Y0pHa2JBdnd0UDJsTTZJNDdCODBZM05iR0tBTTFVdk5VK3ozQXQxaGFXVmwzWTNWQkhyMExLak1ySXJxMzNxMDlyRTZmN1F3OFpjdk1hV2MwVkZCSjVpckpqYnU3TlVwNjFSM3dseng1aFR4MHBPZmVsSFd1cCtIbmdIV2ZpbjRzcy9EK2cyelQzTTdmTS84RVNmeE8vK3pSS1VZUjVwSEppOFhTd1ZHV0l4RXVXTVM5OEpQaE5yZnhqOFhXK2c2SER3emJycTdkZmtnaS92Tlg2dGZCLzRSYVA4SFBCOXZvZWsyNFZFK2VXWnZ2elNkMmFzNzREZkE3UnZnZDRTaTBuVGxXVzhmNTdxOVpmbm5rOWE5Uk9TRHppdm1zVGlaVlpIOGtjWGNVMWMvcit6cCs3U2p0L21GUHB3NlV0ZWVmbmdVVVVVQUZGRkZBQlJSUlFBVVVVVUFGRkZGQUJSUlJRQVVVVVVBRkZGRkFITy9FTC9BSkVYeEgvMkRyai9BTkZOWGhuZ24va1RkQi82OGJmL0FOQVN2b2ZVYkdIVTdPZTB1WS9OdDVvMmlrVCs4cmNHdUxnK0NQaEcyaVNLTFQ3dUtKRjJLaTZuZGJWWC92N1hSUnF4Z0J3MUZkLy9BTUtYOEovOCtkMy9BT0RPNi84QWp0SC9BQXBmd24vejUzZi9BSU03ci80N1cvMW1JSEFVeWFHS1pOc3FxNmYzSFd2UXYrRkwrRS8rZk83L0FQQm5kZjhBeDJqL0FJVXY0VC81ODd2L0FNR2QxLzhBSGFQck1RUE8vSmkrVDVWK1g3dnlmY3B5UXFtL2FxcHUrZHRsZWhmOEtYOEovd0RQbmQvK0RPNi8rTzBmOEtYOEovOEFQbmQvK0RPNi93RGp0SDFtSUhrZWxlQnREMGZYTHZXcmF4Vk5XdWwyUzNieXRLK3orNTh6L0t2KzVXdzl0QTh2bXRGRjV2OEFmMi9QWG9uL0FBcGZ3bi96NTNuL0FJTTdyLzQ3Ui93cGZ3bi9BTStkNS80TTdyLzQ3UjlaaVFlZHZad1RQdWxnaWQvNzdyVGtoaVI5NnF1Ly9kcjBML2hTL2hQL0FKODd2L3daM1gveDJqL2hTL2hQL256dS93RHdaM1gvQU1kbytzeExQUFhSWGRHWkYzci9BQjAxN09CMTJ0Qkc2ZjNOdGVpZjhLWDhKLzhBUG5kLytETzYvd0RqdEgvQ2wvQ2YvUG5kL3dEZ3p1di9BSTdTK3N4QTg3U3pnVFp0aWlUYi9jV2o3TkYvenlUNzIvN3RlaWY4S1g4Si93RFBuZC8rRE82LytPMGY4S1g4Si84QVBuZC8rRE82L3dEanRQNnpFRHpyN05BOHZtdEZGNXY5L2I4OVRWMy9BUHdwZnduL0FNK2Q1LzRNN3IvNDdSL3dwZnduL3dBK2Q1LzRNN3IvQU9PMGZXWWtIQVVWMy84QXdwZnduL3o1M24vZ3p1di9BSTdSL3dBS1g4Si84K2Q1L3dDRE82LytPMGZXWWdjQlJYZi9BUENsL0NmL0FENTNuL2d6dXY4QTQ3Ui93cGZ3bC96NTN2OEE0TkxyL3dDTzBmV1lnZWQrQnY4QWt1bW1mOWdLNi84QVJ0dlgwQlhHK0gvaHI0ZjhMNnQvYWVuMk1pYWo1VDIvMmlXNmxsYlkzekZmblp2N3ExMlZjZFNmUElzS0tLS2dBb29vb0FLS0tLQUNpaWlnRHkzOXFML2szSDRsL3dEWUF2Zi9BRVUxZHo0Vi93Q1JWMGIvQUs4b2YvUmExdzM3VVgvSnVQeEwvd0N3QmUvK2ltcnVmQ3YvQUNLdWpmOEFYbEQvQU9pMW9BMmFLS0tBSVhRQWoycjVDL2JIL2F3VDRkMjl4NFE4TDNTdDRqbVhaYzNLZjh1YS93RHhWZlhyamo3Mks1NisrSC9oelViaHJpODBMVDdxNGsrOU5OYXhzN2ZVN2EwcHlqR1h2SHBaYmlhR0V4TUsrSXA4OFkvWlB4Umx2RGN5dkxOTDUwcnR2WjNiNTJxSXZIMllWKzEvL0NzdkNYL1F0NlYvNEJSZi9FMEQ0WmVFUi96TE9rLytBVVgvQU1UWHIvMmhiN0orM1UvRkdGS0hKRENmai93RDhVTjZmM2xvOHhQV3YydC80VmY0Uy82RnZTdi9BQUNpL3dEaWFQOEFoVi9oTC9vVzlLLzhBb3YvQUltaiswZkl2L2lLdi9VTi93Q1RmOEEvRkxlbnF0RzlQVmEvYTMvaFYvaEwvb1c5Sy84QUFLTC9BT0pvL3dDRlgrRXYraGIwci93Q2kvOEFpYVA3UjhoLzhSVy82aHZ4L3dDQWZpbDVpZXRHOVBWYS9hMy9BSVZmNFMvNkZ2U3YvQUtML3dDSm8vNFZmNFMvNkZ2U3YvQUtMLzRtaiswZklQOEFpSzMvQUZEZmovd0Q4VXQ2ZjNscHNqUnVqUm5heXRYN1hmOEFDc3ZDWC9RdGFWLzRCUmYvQUJOTC93QUt2OEpmOUMxcFgvZ0ZGLzhBRTBmMmgvZElmaW9udmh2eC93Q0FmaU0ybFdUbFR0NVZkdnlzeS9MUU5Nc3ZsMnJzMnJ0K1NSbCtXdjIyUHd3OEovOEFRdGFYL3dDQWNmOEE4VFIvd3JEd2wvMExXbC8rQWNmL0FNVFUvWElmeW5GL3hFbkRmOUFmOWZjZmlRMmxhZVgzaFNuOTdhV1hkUytUTHUrVysyTC9BSE5xMSszWC9Dci9BQWwvMExXbC93RGdISC84VFRUOE1QQ1gvUXM2Vi80QngvOEF4Tkw2N0QrVWYvRVNLSDJjSnkra3JINGxmWkxiWkw1cks3Uy9lLzJxSTlNc1FycnREN3ZsK1ptYXYyNC80Vmw0Uy82RmpTZi9BQUNqL3dEaWFUL2hXSGhJL3dETXRhVi80QlIvL0UwZlhvL3lsZjhBRVNjUEw0c0grUDhBd0Q4UlRwdGtWWmR1NVc5WkdhbzV0R3MzZ2VOZmxkdnZOdTN0WDZ3ZkJ6d0o0ZHUvaWY4QUdXQ2ZROU5uaXQ5ZnRVZ1JyT0xiR3Y4QVo5dTIxZmxyMTMvaFdYaEwvb1dkSy84QUFLUC9BT0pwZlhJL3lpbDRrWVdlbjFQOGYrQWZoL1k2SGFXaXlibWFaNVczTXpOVmlhd3M3bDNhUlZkMitiNzFmdHdQaG40U1gvbVd0Sy9HeWkvK0pwVDhNZkNMZjh5MXBYNFdVWC94TlA2OUQrVUtmaVJocWNlU09EMDlmK0FmaUxEcHRuYmZMSHVSZjd2bU5zcFl0T3RMZDkwYS9kKzc4emZMWDdjLzhLeDhJLzhBUXM2Vi93Q0FVWC94TkgvQ3NmQ1AvUXM2Vi80QlJmOEF4Tkw2N0grVUkrSkdGaC96Qi9qL0FNQS9FRzUwbTJ1cmlPV1NWdmtYYXY3eW5YR21Xc3FSeC9Lc01iYnRxMSszZi9DdFBDWC9BRUxPbGY4QWdGRi84VFR2K0ZZZUVSL3pMT2xmK0FVZi93QVRSOWNqL0tIL0FCRWpESy8reDcvM3YrQWZpaHZUKzh0RzlQN3dyOXJmK0ZaK0UvOEFvV3RLL3dEQUtMLzRtai9oVi9oTC9vVzlKLzhBQU9ML0FPSnJYKzBmSTYxNHFLUC9BRERmK1RmOEEvRzd3ZDRTMVB4NzRpc3REMEcyZTl2N3R0cXF2OEgrMDFmcWYremgrenpwbndOOExyQ29TNTF1NVVQZVgyMzUyYis2dit5dGVsYVg0TTBMUlp2T3NOR3NiR2Y3cGUyZ1dOai9BTjhpdWhYN3RjVmZGeXJud1hFbkdXSno5UnB4WEpUL0FKUmRsQ0ppbjBWd0g1MkZGRkZBQlJSUlFBVVVVVUFGRkZGQUJSUlJRQVVVVVVBRkZGRkFCUlJSUUFVVVVVQUZGRkZBQlJSUlFBVVVVVUFGRkZGQUJSUlJRQVVVVVVBRkZGRkFCUlJSUUFVVVVVQUZGRkZBQlJSUlFBVVVVVUFGRkZGQUJSUlJRQVVVVVVBRkZGRkFIbHY3VVgvSnVQeEwvd0N3QmUvK2ltcnVmQ3YvQUNLdWpmOEFYbEQvQU9pMXJodjJvdjhBazNINGwvOEFZQXZmL1JUVjNQaFgva1ZkRy82OG9mOEEwV3RBR3pSUlJRQVVVVVVBRkpnVXRGQUJSUlJRQVVVVVVBRkZGRkFCUlJSUUFtQlJnVWJxYnZvQWRnVTNPTzFJemdWeCt1L0U3UXRDbGVCcno3WGVML3k2V1MrZEwrUy9kLzRGaWlNWlQrRXhsVWhENGpzZDljZjhUL0N0cDQ1OEVhdm9sM3FWenBFTjVBVSszV2R5MXZOQTM4TEs2KzljYnFueEk4UWFvenJwOXBEb3NYL1BhOC9leS84QWZDL0ovd0NQTlhQWEdtSFU1UE0xUzd1ZFhrSHpZdW0zSi8zeDl5dlFwNEtiK0k4cXJtZE9Id255eit5WDhCdmlRdngrOFVYSHhCK0orb2FsNGUwdlVGdUxhR0xVblgrM3BsVlVobGJuNTBWRVJmNHZ1N0svU1pEK05lQlhPbTIxNUI1VTl0SE1pZmRSMSs1VStuWHVzNkN5L3dCbDZ2T2tLLzhBTHBlbno0di9BQjc1MC83N3JXZUFmMkpHVlBOTC93QVNKN3pTWTlxOHQwLzR1eldlRjEzU0pJY2Y4dmVuL3Y0disrZnZMWGNhRjRyMHJ4TEdaTlB2b2JuSDNsUi9tWC9lV3ZQblFxVXZpaWV0VHhOS3I4TWpkd0tXbWI2TjlaSFVQb29wTWlnQmFUYlMwVUFKZ1V0RkZBQlJSUlFBVVVVVUFGRkZGQUJSUlJRQVVVVVVBRkZGRkFCUlJSUUFVVVVVQUZGRkZBQlJSUlFBVVVVVUFGRkZGQUJSUlJRQVVVVVVBRkZGRkFCUlJSUUFVVVVVQUZGRkZBQlJSUlFBVVVVVUFGRkZGQUJSUlJRQVVVVVVBRkZGRkFCUlJSUUFVVVVVQWVXL3RSZjhtNC9Fdi9zQVh2OEE2S2F1NThLLzhpcm8zL1hsRC82TFd1Ry9haS81TngrSmYvWUF2ZjhBMFUxZHo0Vi81RlhSdit2S0gvMFd0QUd6UlJSUUFVVVVVQUZGRkZBQlJSUlFBVVVVMDlCUUE2aW84aXMvVk5ac2RGdDJudjd1RzBoWCtPV1hiVFN1Wjh5UnBEclRDNTNjQVY1cmYvRiszYmV1aWFmYzZ3My9BRDhQL285di93Qjl2OTcvQUlDcHJtdFExL3hMcjIvN1pxdjJHM2IvQUpkOU1YeXYvSXJmTi82QlhUVHdsV2Z4YUhCVng5S2w4UHZIcUd1K010RzhNcG5VZFFodDVNZkxDWDNTdi91cjk2dUsxRDR0WGw2clI2THBUS3VNTGQ2bTNsSi8zd3Z6ZitnMXlWbnBWbllNN1FRS2tyL2VtZjUzZi9mZXIxZWxTd1ZPSHhua1ZjeXFUK0gzU0hVVHFtdi9BUElaMWU1dkViL2wzdC85SGkvNzRYNzMvQTNwdG5ad1dFWGxXMEVjTVg5eUZkbFdLWlhvUnB3aDhCNWNxazV5NXBqNks1enhiOFJmQy9nQ0szbDhTK0lkTjBHSzRiWkUrcDNTVys3L0FITjFZK2lmSGo0YytKOVV0OU0wcngxNGQxTFVMaDlrVnZhYW5GTEsvd0R1SXIxUE5FcjJVdmo1VHU2S0taVm1ZVlV1ZEhzN3lWSjJpMlhDL2R1SW04cVZQK0JyODFXNktDdFN6cDNpZnhQb1JWSU5RajFlM1gvbDMxQmZuLzRCS24vc3l0WFVXSHhnMDkzV1BWcmE1MFdVL3dETFdaZDl2LzM5WHAvd0xiWEkweitDdVNwaGFVOWpycDQydlM5MjU3WHAycDJ1cFdxejJsekZjUlA5MTRuM0xWM09lZ3I1NlRTb3JhNiswNmZMUHBWMy93QTlyRnZLM2Y3NmZkYi9BSUhYUTZkOFEvRXVpL0pjeFFhN2JyL0gvd0FlOXgvOFEzL2p0ZWJQQlRoOEo3RkxNNFQvQUludW5zM1dscmdORStLMmlhbk1rRnhNMmtYVGRJTDlmSzNmN3JmZGF1M2ptV1JONnNyTC9lV3VHVUpRK0k5U25WaFUrRXNVVXpmVDZrM0NpaWlnQW9vb29BS0tLS0FDaWlpZ0Fvb29vQUtLS0tBQ2lpaWdBb29vb0FLS0tUZFFBdEZKdW8zVUFMUlJSUUFVVVVVQUZGRkZBQlJSUlFBVVVVVUFGRkZGQUJSUlJRQVVVVVVBRkZGRkFCUlJSUUFVVVVVQUZGRkZBQlJSUlFBVVVVVUFGRkZGQUJSUlJRQjViKzFGL3dBbTQvRXYvc0FYdi9vcHE3bndyL3lLdWpmOWVVUC9BS0xXdUcvYWkvNU54K0pmL1lBdmYvUlRWM1BoWC9rVmRHLzY4b2YvQUVXdEFHelJSUlFBVVVVVUFGRkZGQURmNFJUZHdGUFBVVnovQUl0WFhIMG1WZkQ4bG9tb2Z3bStWdG4vQUk3UVp5bHl4TmVTNFNCR2FSbGpSZjRtTmNUcTN4YjBXMGQ0TEJwZFp1VitYWllMdlgvdnI3dGVZNjFEcVVNKzd4aEZxVHYvQUg3ajU3TC9BSUR0K1ZmK0IxZXRuZ2VCUHN6UlBGL0Q1UDNLOWFqZzROYzBwSGdWOHdxcjNZeDVUVzFIeDE0bjFyNVltZzBHM2IvbmovcEZ4LzMwM3lML0FOOE5XRC9ZOEQzWDJtNWFXL3UvK2ZpK2w4MS8vSC91L3dEQUswS0s5S25TaFQrRThlcFZxMWZpa0ZGRmMvNDE4ZGFEOFBkQ2wxbnhKcVVPa2FkRyt4cnE0KzZ0YW1YS2J0UHJ4aUg5c240TFhNNnhyOFJOSDNNMnhmbWYvd0NJcjF6VGRTczlZc29yeXh1WTd5MHVGM3hTeE52UjBxSXlqUDRUV1ZLY1BpaVc2S1pUNnN5UGpEL2dvTm9sMzRrOFFmQy9UYkNLd252YnJVM2lqVFZZL050M2IvcHF2OFMxMDN3VC9aczhYZUNmRzl2clhpZnc5OExrMCsxaWQxZnc1bzdXOTZzdjhHeG1TdnB1ODBmVDlTbGlsdkxHMnVaWUczeFBORXJ2RS84QXMxZXJtOWo3M01keXhNdlorelB6aytKM3hqMTd4YnJQeEF1OU44Y2FwNGJ1TkduZUsxdDlROFNmWU4rMytDS3lnaTNOL3Z1OWRucVh4NCtJZHoreXI0RTF4Tlh1WVpkUnZGdGRhMTYzaVI1YmUzMzdIZjhBMmY4QWZyN1Nmd2xvYzJwUGZTNkxwNzNyZmV1SHRVODEvd0RnZFRXMmc2WloyRDJOdHA5cGJXVGZldDRZRlNML0FMNHFQWlMvbU5aVjQ4dnduekQ4UGZFbmh6UlBpaHBsajRhK05ldCtNM3ZiRjNiUTdpNi90V0tXVmY3OHYvTEN2QXIvQU9ObnhFOFE2NTR3bjhRZUlidnc5ckZoZVN4V2RwL3dsc1drUlc2cjl6L1JXaWRwNi9SWFIvQ3VqZUhwWGwwelNOUDAxMis4OXBhckU3Zjk4MXp2akRVdkFXbStJZEhnOFN3YVIvYkdveStWWS9hN05aWlpYL3VJK3lpVk9YOHdScXg1dmhNLzludnhENGo4VmZDWFF0VDhWU3dUYXhMRjgxeGIvY2wvdVA4QWNTdlJhRVJVVGFxN0VwOWRNZmNpY00vZmx6QlJSVU56Y3gyMXU4OHJiSW9sM3UvK3hWM011VUpvWXJtTHlwWWxtUi80SFRmVVZsYjNlaFB2MGJVcm5TdituZEc4MjNiL0FMWlAvd0N5YmF5dkJuanpRZmlGcGI2aDRjMVdEVmJGSlhpYVczKzV1WDc5ZEJVOHNKN2w4MDZadDZiOFZ0WTA5a1RXZEtTOGgvNSs5TWI1L3dEZ1VUZit5TzFkbjRmK0lHaWVJM0VkcHFNWnVSOTYxbVBsU3I5VWI1cTh1ck0xaDlLL2RMZmVVOHYvQUN5VGJ2bDMvd0N4dCthdUdyZzZjdmdQUXBaaldoOFh2SDBPcmM5QitkUERCeFhoL2hpMThlSk5GL1lqVHdhZC93QlRCOHlmOEJYL0FGdGRlTGY0b2pwcUhoRC9BTUFici80N1hqVktmSkszTWZTVUt6cXg1bkhsUFJhSzgrK3ovRlQvQUtDSGhEL3dDdXYvQUk3UjluK0tuL1FROElmK0FWMS84ZHJNNlQwR2l2UHZzL3hVL3dDZ2g0US84QXJyL3dDTzBmWi9pcC8wRVBDSC9nRmRmL0hhQVBRYUs4Kyt6L0ZUL29JZUVQOEF3Q3V2L2p0SDJmNHFmOUJEd2gvNEJYWC9BTWRvQTlCb3J6NzdQOFZQK2doNFEvOEFBSzYvK08wZlovaXAvd0JCRHdoLzRCWFgvd0Fkb0E5Qm9yejc3UDhBRlQvb0llRVAvQUs2L3dEanRIMmY0cWY5QkR3aC93Q0FWMS84ZG9BOUJvcno3N1A4VlA4QW9JZUVQL0FLNi84QWp0SDJmNHFmOUJEd2gvNEJYWC94MmdEMEdpdlB2cy94VS82Q0hoRC9BTUFyci80N1I5bitLbi9RUThJZitBVjEvd0RIYUFQUWE4Sy9iRnZ0ZTA3NEZhdzNoclZiN1JOWWFXSklyM1QzWlpZdHovN05kcDluK0tuL0FFRVBDSC9nRmRmL0FCMm0vWlBpai96L0FIaEQvd0FBYnIvNDdRQjgxK0ZmaWg4VDdQNDYrQ1BCUGlxRFVudTdHeHVKYmkrdHQ2V1dzcnMvZFA4QTNkLzk1ZjcxZFJwSHg5OGEzdHhvOC9uMlY1cjF6cTMySzg4REpaN2J1eWczN1BOWjkyNzVmdmIyWGJYdG4yVDRvLzhBUDk0US93REFHNi8rTzBuMlA0cGJ0MzI3d2QvNEEzWC9BTWRvQTlBaU85ZHpKc05TVjU1OW0rS24vUVE4SWY4QWdEZGYvSGFkOW4rS24vUVE4SWYrQVYxLzhkb0E5Qm9yejc3UDhWUCtnaDRRL3dEQUs2LytPMGZaL2lwLzBFUENIL2dGZGY4QXgyZ0QwR2l2UHZzL3hVLzZDSGhEL3dBQXJyLzQ3UjluK0tuL0FFRVBDSC9nRmRmL0FCMmdEMEdpdlB2cy93QVZQK2doNFEvOEFyci9BT08wZlovaXAvMEVQQ0gvQUlCWFgveDJnRDBHaXZQdnMveFUvd0NnaDRRLzhBcnIvd0NPMGZaL2lwLzBFUENIL2dGZGYvSGFBUFFhSzgrK3ovRlQvb0llRVA4QXdDdXYvanRIMmY0cWY5QkR3aC80QlhYL0FNZG9BOUJvcno3N1A4VlArZ2g0US84QUFLNi8rTzBmWi9pcC93QkJEd2gvNEJYWC93QWRvQTlCb3J6NzdQOEFGVC9vSWVFUC9BSzYvd0RqdEgyZjRxZjlCRHdoL3dDQVYxLzhkb0E5Qm9yejc3UDhWUDhBb0llRVAvQUs2LzhBanRIMmY0cWY5QkR3aC80QlhYL3gyZ0QwR2l2UHZzL3hVLzZDSGhEL0FNQXJyLzQ3UjluK0tuL1FROElmK0FWMS93REhhQVBRYUs4Kyt6L0ZUL29JZUVQL0FBQ3V2L2p0SDJmNHFmOEFRUThJZitBVjEvOEFIYUFQUWFLOCsrei9BQlUvNkNIaEQvd0N1djhBNDdSOW4rS24vUVE4SWY4QWdGZGYvSGFBUFFhSzgrK3ovRlQvQUtDSGhEL3dDdXYvQUk3UjluK0tuL1FROElmK0FWMS84ZG9BOUJvcno3N1A4VlArZ2g0US93REFLNi8rTzBmWi9pcC8wRVBDSC9nRmRmOEF4MmdEMEdpdlB2cy94VS82Q0hoRC93QUFyci80N1I5bitLbi9BRUVQQ0gvZ0ZkZi9BQjJnRDBHaXZQdnMvd0FWUCtnaDRRLzhBcnIvQU9PMGZaL2lwLzBFUENIL0FJQlhYL3gyZ0RPL2FpLzVOeCtKZi9ZQXZmOEEwVTFkejRWLzVGWFJ2K3ZLSC8wV3RlWWVQL0EzeEgrSS9nWFhmRFY5cS9oYTBzOVpzNWJLYTR0N0c1M29zaWJkeTdwZmV2VjlJczEwclNiSzAzYi9BQ0lVaDMvM3RxaGY2VUFhTkZGRkFCUlJSUUFVVVVVQUZNcDlNMlVBUnZIdlRheUsxY1hxL3dBS05GMUtWcDRJWDBtNmNmNi9UMjhyL3ZwZnV0K0sxMnUzUFEwNEw2bXJVNVErRTU2bE9GWDNaeFBITlMrSHZpWFIwM1drbHZydHYvY1ArajNIL3dBUTMvanRZRDZyRlozQ1cyb1JUNlZjZjg4YjZMeXQvd0R1UDkxcStnZ21hcDMybVd1cFc3UVhjRWM4VC9lamtYY3RkMVBHelh4SG1WY3NoTCtHZUtWOHovOEFCUXVGN245blBVMWlYNTJ1b3Y4QWIvanI3STFQNFFhZXhhWFJybTUwV1grNUQ4OXYvd0IrbS84QVpOdGN0cW5oTHhIcENQOEFhZE5qMXUxLzU2NmY5LzhBNzlOLzdMdXJ1V0lwVm84dk1lZDlXclllWE55OHgrYmZ4QStCWHhSOEsvRHF5MURVcnZRTmU4SFhGc3FhaTJnK0ZMSmRRdFltVDd5N290ei9BTytqVjJYeFIxdlUvQi83TzN3OHMvaE5yRjllZUI5M2xhbnFhU3l4U292OXlWMVIyaVgvQUhLKzNyYlZiTzhsZTJXVlVsVDcxdk11eDEvNEExV2t0b2tpOHBZbFJQN2lMVmV3NWZnRjlkay9qZ2ZEWDdPZXZlSmJuNHYyOFhoZnhIWlhuaHg3Ti90Mm4ybXNhbHE4TzcrQi9ObmkycTMreHZyS3MvRW1qYXJxbmoxdmpUNDI4VGVHUEZ0cmVTcHBscEZmWEZraXdmd2ZaNG90aXkxOTlRMjBWdC9xb29vZjl4YWJOWndUTnVsZ2pkLzc3clI3Q1g4d3ZyVU9ibTVUNUUrTFhqRHhSRDhGdkFrK2c2djR0ZndwZFhTSnJ1czNGcThXcHBhLzMzMnB1UmY5dXVkUGlIU3ROK0ozZ3FENEYrTE5kOFR5M0UrM1hiUjlRdXIrMFczL0FMOHJTNy9LYXZ1TFlycnQyL0pUWWJhQzJmZkhCR24rNHV5cjltWlJ4TUkvWlBpYlV2RU1HcGZ0RCtMYkg0d2VKZkVIaDdUNE5uL0NPMjl2ZVQyVnZLbjk5SGkvMXJWaGZCL3hWcTgyamZ0QkxGNGcxM1VvYkJKZnNNMnAzVXYyaUpkdnliZDMzYStuZkdIN1BFSGlmeFZMcjFqNDI4WCtHN3VkZGtzV21haXIyLzhBd0NLVkhWZitBVnQvQ2o0SWVIL2hGYjZuL1pqWGVwYWhxa3YyaSsxUFU1Zk51THB2OXVzZlp5NWpwbFhwY2g4ZjIvZ3k3bS9Zd3RmaURKNHE4VlA0dHRiYjdSQmQvd0J0M0h5ZlA5enl0KzFxNmJ4LzR6OFIzK28vczVYY3VxMzNtMzhxUGZQREt5ZWY4aWZmMi9lcjdYK3pSZVY1WGxMNVg5emI4bEgyYUw1UDNTL0o5MzVmdTF0N0V4K3RINTIvdEplUC9DdmliNHUzSGhQd3Y0ajFMd3JxSG4vOFRieE5xT3Uza1ZwYS93QjlJb3ZOMnMzL0FBR3VsK00zaUhYUERId3k4QmFmNEE4VzMzaVR3STB2bGF4NGhlK25UelgvQU9tdHhFcnRFbis1WDNXK20yenZ1YTJnZC84QWJpU25lVEFsdThYbFJwRi9jMi9KVWV4K0l2NjNEM2ZkUGlYOW1uWHZGVTN4UTFDTHc1NGhzdFM4TC9ZV2VYVDdUVnIvQUZlSmJqK0IwdUo0a1ZXLzJOOWM1NEo4VDZIcXR2NDFsK0tualB4UnBYeEZpdXAwdGRQKzNYVnZzaS81WmVWYnI4ckwvd0FBYXZ2Q3h2WXJ1WHlkRXNaTlJsL3U2ZkY4bi9BMys3WFJXUHdzMXJXR1dmVXBiWFJrL3UyNkxQY2Y5OU44cS84QWoxWVM1YVh4U042Y3BWWmMwWUh5SC93VDF1WUxENEMzRXQxTzBNWDlwenY1MTM4ci9lZjc5ZlVsaXVwYTYyM1NOSXVieFA4QW40bC8wZTMvQU8rbS93RFpOMWVrK0gvaFpvSGgrVkpJckJicTZYN3R6ZEh6WEh1TjMzZitBMTJheEJlZ3JCNHpranl3T2o2aDdXWE5VUExOTytFdW8zNTNhM3F3aWgvNTlOTVhaLzMxSzN6L0FQZkd5dTAwTHdSb3Zob2Y2RHA4TUV1UG1tQ2JwVy80SDk2dWcyMHVQYzF4VHJWS254SHBVc0xTcGZERVpUMG8yVUltS3hPd2ZSUlJRQVVVVVVBRkZGRkFCUlJSUUFVVVVVQUZGRkZBQlJSUlFBVVVVVUFGRkZGQUJSUlJRQVVVVVVBRkZGRkFCUlJSUUFVVVVVQUZGRkZBQlJSUlFBVVVVVUFGRkZGQUJSUlJRQVVVVVVBRkZGRkFCUlJSUUFVVVVVQUZGRkZBQlJSUlFBVVVVVUFGRkZGQUJSUlJRQVVVVVVBRkZGRkFCUlJSUUFVbUJTMFVBTTJVYktmUlFCeit2ZUY5SzhSdytYcVZoQmRyamp6VXl5LzhDL2hyaWRTK0VFOXJ2ZlFkVmtpLzZkTlEvZnhmOTlmZVgveDZ2Vk0rOUwwclduWHEwL2hrY3RURDBxdnhSUEJOUnM5YjBEL2tLYVJPa1gvUDNaZnY0djhBeDM1MS93QytLZ3M3KzJ2NHQxdFBGTW4rdzFlL01QbDlhNW5YZmgxb1hpSnZQdUxOWTd2L0FKK29HOHFYL3ZwYTlHbG1IODhUeUt1Vi93RFB1UjVsUlczcVh3czFyVGR6YVJxVVdwUmY4KytvTHNmL0FMK3Ivd0RFMXpOOWZUNkszbGF6cDl6cFgvVFdaZDhUZjl0VitXdStuWGhWK0dSNU5UQzFhWHhSTGRGVWJuV0xHemlTV1M1aVJIKzc4MzN2OXlydW42VDRnMThaMC9SM2hoZi9BSmVOVC9jSi93QjhmZS84Y3E1VklRK0l6alRuUDRSYXo1dFl0b1ovc3lzMXpkL3cyOXVyeXkvOThMWGM2ZDhIbG53MnU2cFBmdDN0N1gvUjR2OEF4MzUvL0hxN2JSdkQybTZEQUlOT3NyZXppL3VSUmJhNHFtT2hENEQwYVdXem44WHVubGVuK0VQRk90YldTMWgwV0JobnpiMXZObC83OUwvOFhYVWFWOElkTGdLUzZwTFByazYvTi9wYmZ1disvUy9MK2xlaGdHa3dQZXZPcVlxclVQWXBZQ2xTSzl0YXhXa1N4UVJyRkVnK1ZFWGF0V05sUG9ybFBRc2hsUG9vb0tDa3dLV2lnQW9vb29BS0tLS0FDaWlpZ0Fvb29vQUtLS0tBQ2lpaWdBb29vb0FLS0tLQUNpaWlnQW9vb29BS0tLS0FDaWlpZ0Fvb29vQUtLS0tBQ2lpaWdBb29vb0FLS0tLQUNpaWlnQW9vb29BS0tLS0FDaWlpZ0Fvb29vQUtLS0tBQ2lpaWdBb29vb0FLS0tLQUNpaWlnQW9vb29BS0tLS0FDaWlpZ0Fvb29vQUtLS0tBQ2lpaWdBb29vb0FLS0tLQUVicFRkbFBvb0Fac3FPYTNTWkhTUlZkRy9oYXA2UTlLQVBDdmdycHRzZmluOFlFRUVleXgxMjNpdGp0SDdoR3NMZDNWZjd2enN6ZmpYdVd3Q3ZHdmdoL3lWZjQ0ZjlqRmEvOEFwdHRhOW82Q2h2bU00d2pENFJ1eW5iYVdpZzBDaWlpZ0Fvb29vQUtLS0tBQ2lpaWdBb29vb0FLS0tLQUNpaWlnQW9vb29BS0tLS0FDaWlpZ0Fvb29vQUtLS0tBQ2lpaWdBb29vb0FLS0tLQUNpaWlnQW9vb29BS0tLS0FDaWlpZ0Fvb29vQUtLS0tBQ2lpaWdBb29vb0FLS0tLQUNpaWlnQW9vb29BS0tLS0FDaWlpZ0Fvb29vQUtLS0tBQ2lpaWdBb29vb0FLS0tLQUNpaWlnQW9vb29BS0tLS0FDaWlpZ0Fvb29vQUtLS282akhkVDJFeVdVa2NOMFYvZHZLdTVRMyswdEFGNml2QzIrTTNpSTNsMzRlZlIxc1BFV2tyOW8xYTdtamRyS0sxLzU2eGYzOTM5M2Q4dFErQS8ycHRKOGVhcGEybHBwTjFJbDdBMXhheVcwcVRzMjFOMnlWQi9xbW9BOTZvcnl6NGIvQUJvWDRnNjFkYWMybUxwa2tDaHRqM3FQTXY4QXNQRjhySTMvQUgxWHFkQUhpM3dQL3dDU3NmSEQvc1lyWC8wMjJ0ZTAxNHQ4RC84QWtySHh3LzdHSzEvOU50clh0TkFCUlJSUUFVVVVVQUZGRkZBQlJSUlFBVVVVVUFGRkZGQUJSUlJRQVVVVVVBRkZGRkFCUlJSUUFVVVVVQUZGRkZBQlJSUlFBVVVVVUFGRkZGQUJSUlJRQVVVVVVBRkZGRkFCUlJSUUFVVVVVQUZGRkZBQlJSUlFBVVVVVUFGRkZGQUJSUlJRQVVVVVVBRkZGRkFCUlJSUUFVVVVVQUZGRkZBQlJSUlFBVVVVVUFGRkZGQUJSUlJRQVVVVVVBRkZGRkFCUlJSUUFVVVVVQUZGRkZBQlRIcDlGQUdDbmhQU2sxZTkxUDdGR2I2OWdTQ2VWdm04eEYvaHJuOUkrRC9oTFFieDdxejBsdHhSb2tpbHVwNVlZVWI3eXhSTzdMRi93QlZydnFLQU9OOE0vRExRUEI5L0plNmJhWEF1MlRZSmJxOG51akduOXhQTmR0aS83SzEySy9kRkxSUUI0dDhEL3dEa3JIeHcvd0N4aXRmL0FFMjJ0ZTAxNHQ4RC93RGtySHh3L3dDeGl0Zi9BRTIydGUwMEFGRkZGQUJSUlJRQVVVVVVBRkZGRkFCUlJSUUFVVVVVQUZGRkZBQlJSUlFBVVVVVUFGRkZGQUJSUlJRQVVVVVVBRkZGRkFCUlJSUUFVVVVVQUZGRkZBQlJSUlFBVVVVVUFGRkZGQUJSUlJRQVVVVVVBRkZGRkFCUlJSUUFVVVVVQUZGRkZBQlJSUlFBVVVVVUFGRkZGQUJSUlJRQVVVVVVBRkZGRkFCUlJSUUFVVVVVQUZGRkZBQlJSUlFBVVVVVUFGRk0zTFR0dzlhQUZvb29vQUtLS0tBQ2lpazNVQUxSU2JxTjFBQzF5L2ozeHpwbnc1OEthajRoMWY3U3VtMkNlYk8xdEExdzZML2UyTDgxZFB1cXJjMnNWL2J5d1R4TE5CSXUxa2I3ckxRQjhjZkFiOXJyNFdhcjhaZmlKcCtrZUtVMW0rOFQrSWJWdEpnc0xlV1Y3aGZzVnVqdWZrK1ZGZEdYYzFmWjZQdXI1LzhBZ3AreGY4T1BnSDhSUEVmakx3M3A1R3BheEt6SXNvVmxzRVk1Wkl2N3ExOUFKUUEraWlrM1VBTFJTYnFOMUFDMFVtUlMwQUZGRk0zMEFQb3BNaWxvQUtLS0tBQ2lpaWdBb29vb0FLS0tLQUNpaWlnQW9vcE4xQUMwVXpjdFBvQUtLS0tBQ2lpaWdBb29vb0FLS0tLQUNpaWlnQW9vb29BS0tLS0FDaWlpZ0Fvb29vQUtLS0tBQ2lpaWdBb29vb0FLS0tLQUNpaWlnQW9vb29BS0tLS0FDaWlpZ0Fvb29vQUtLS0tBQ2lpaWdBb29vb0FLS0tLQUNpa3lLYlFBRWpITk1jNEFQYW9MaTRqdFlHa2tkVVJmbVlzZnUxODNmRnY5cVdPMWU0MG53aXlYRjB2eVNhaDFpaS8zZjc5ZVJqOHl3MlhVK2V0S3g2bVhaWmlzMHEreXc4T1k5TytLbnhwMFg0WjJRRTBxM2VwdXY3bXloYjUzL3dCNys2dGZPOTMrMXI0NmxuZG9JZEhoaTNmTEU5dEs3TC93THpWcng2OHU1dFJ2SmJ1N25rdkxxZHQwdHhLMjUyYW84R3Z4TE0rTWNaaWF2K3l5NUluN3ZsUEJPQncxRC9hNDg4ejJML2hyYjRnLzNkRi84QkpmL2p0SC9EVzN4Qi91NkwvNENTLy9BQjJ2SEtLOFAvV2ZOUDhBbjh6My93RFZMSi8rZktQWS93RGhyYjRnL3dCM1JmOEF3RWwvK08wZjhOYmZFSCs3b3Y4QTRDUy8vSGE4Y29vLzFuelgvbjh3L3dCVXNuLzU4bzlqL3dDR3N2aUQvZDBYL3dBQkpmOEE0N1htdmlyL0FJS09lTy9EL2lXYlJiYlJOTDFLYUJWYVYvTCt6LzhBZkN0UDgxWTJHcnpmeDM4SkxqeGxmeXlmMnhBa0VxN1BzOTdwc1YxNVgvWEptK1phOS9LT0pNUTZyK3ZWdmQvcnNlTG1YQ3VEVVA4QVpLTWViK3U1N2hyMy9CUlR4UjRiYlI0NzYwc29ialVRcEVSMHlmTVgrOSs5cTNxWC9CUTdWdEt2M3RMbSswWVRKL3JmSzB5NmxTTC9BSG1WL2wvNEZYZ2w5OEhnK2xlSHJTdzFxZXp1TkZiZEZjU3hMUHUvNEJUSmZoUHFOblBxSDltZUptMDIxMUZ0MTVidllyTHVadnY3Vy9ocjI0NTlTbkhURVMvcjVNOGlYRGRPTXJmVjQvMTh6Nkcxbi9nb0RyZWhwWk5kNmxvV3krVGZiZVZwczh2bS93Qzd0bHFucVgvQlJMVmRLbWlndWIvU1k1U3U5MFRTYnAvS1gvYTJ0OG4vQUFLdkZiUDRVV2VtNmo0ZW50cnRraTBpSmxXSjEzK2J1LzJxNS94cCt6N1orS3ZFbHhyTVdwTFp2ZGY2K0c0dHZQUnY5MzVsck9sbjFHVlJSbmlaL3dCZkkwcThOeGpUNW9ZYUYvNjh6NlYxajl2L0FGenc5QlpTM09vNkZKOXNYZkFsdnA4OHp5ci9BSHRxeTAvd1IrM2w0ejhlTHFEMk1PakpGYVQrUnZhemwrYi9BTWkxODlYWHdmOEFzMCtsWGVnYXUyamFoWVFmWi9OK3pMS2pML3V0VzU4UC9Bc3ZndUsrOC9VVzFPVzhuKzBOSzhTeGZOL3dHc2NSeEE2ZUhsN0xFUzUvNjh2MU5NTnczaHAxL3dCNWg0OHY5ZVo3UGY4QTdlZml6VGRZMUN4dkgwS0g3REI5b25mN0RPMjFmOTN6YXI2TC93QUZEdFg4UWFsYjJWbHFPanZQY3J1Z0Q2WGNvc3YrNjdTN2E4UjE3NFhMcmVyNjFmdHFEUS8yamEvWTlubGIvSy8ydnZWSW53MGpqdC9DOFg5b2Y4Z1Q3djdyL1cvL0FCTlF1SWw3TC9lSmMzL0E5TzVwL3F4UTlyL3U4ZVgrdk0raWRkL2JWOFgrR3JCcjNVcmpRclMxWCtOck9YLzQ3V1JvL3dDMzlybXVSWFV0dGZhSUZ0VTgyVmJqVHA0SFZQNzIxcGE4aDhjZURJUEcra3BhUzNNbG5MRklzc0Z4RXU3YXkvN1A4VlVkSjhIYXhicmRmMnI0amJVM2xpOHBmOUJpaVJmK0EveFZqaDgvcXl3L05WeEV1ZjhBcnlPaXZ3emhJMWJVOE5IbC9yelBaL0R2L0JRSFhmRTh6eDZkY2FYTXlydjNOcEYwaU12K3d6UDgxV24vQUc5dkVTYVRGcVAyN1F2c3NzMzJkRC9aOCs1cGY3dXp6ZDFmT1BoUDROWEhodnhNdXJ5YTd2VC9BSjlMS3pXMVIvOEFlMk44MVhyUDRRV01IalgrM1Z1NW50TjNtcnBycis2V1grOVhSWHorTVp5NU1WSzM5YWJITFM0Ym9PTnA0YU4vNjh6Nkc4WWZ0eStNZkJXZ1RhdGVwcFR3b3VRa2RoT1diL3lMWE9lR3YrQ2l2akh4RkpwUy9ZOUZzMzFGWGFKSmJTNDNmTC93T3VEOFcrSFU4VitITDdTWG0renBjeCtWNXUzZHRyQVQ0Wm9tcGVIcno3ZTMvRW1nYTMyZVYvcmZsLzMvQUphbkJjU3k5aC90RmFYT1hpZUZLSHRmM05HUEwvWG1leFdIL0JSSHhKZDZMUHFkOS9ZMm1XOFYwOXFxTlpTeXZLNi8zVldXdDN3MSszUjRvOFgyOHNtbFQ2Sk9ZbTJ5SytuenhPbis4alM3cStYZFQvWjlzOVg4T3Zwa21xTjV5M3pYc1Z4NVh5S3pmd3V1NzVxNkw0YS9DMjIrSFMzYmVmSGVYVS8zcFlvUEsrWC9BSE43VnJqTS9oN0NVNkdJbHo5djZSbFE0Ym8vV1l4cTRhUEovWG1mVHY4QXcxcDhRZlRSZi9BT1gvNDdTZjhBRFdmeEI5Tkcvd0RBS1gvNDdYanZIdlNWOGIvclBtdi9BRCtaOVQvcWxrLy9BRDVSN0gvdzF0OFFmN3VpL3dEZ0pMLzhkby80YTIrSVA5M1JmL0FTWC80N1hqbEZIK3MrYS84QVA1ai9BTlVzbi81OG85ai9BT0d0dmlEL0FIZEYvd0RBU1gvNDdSL3cxdDhRZjd1aS93RGdKTC84ZHJ4eWlqL1dmTmYrZnpEL0FGU3lmL255ajJQL0FJYTIrSVA5M1JmL0FBRWwvd0RqdEgvRFczeEIvdTZML3dDQWt2OEE4ZHJ4eWlqL0FGbnpYL244dy8xU3lmOEE1OG85ai80YTIrSVA5M1JmL0FTWC93Q08wZjhBRFczeEIvdTZMLzRDUy84QXgydkhLS1A5WjgxLzUvTVgrcVdUL3dEUGxIc2YvRFd2eEJIL0FFQmYvQUtYL3dDTzAwL3RhZkVEdC9Zbi9nREwvd0RIYThpdGJlZSt1b3JhMmdrdWJpVnRrVVVTN25acStrL2hCK3krd1dMVi9HVVNzMzNvdEwzYjBYL3JwL2UvM2Era3lyRlovbXMrV2xVbHkvekh5K2M0VGh6SjZmTlZvcm4vQUpUWCtEL3hEK0tmeEh1NGJtNnRkSXQ5QjNmdkxuN0hJalNqL3BsKzkvOEFIcStpVUpLRHBtb0xXMGl0N2RJSWtXS05GMnFxZncxUDVZSXhuRmZ0dUNvem9VMUN0UG1rZmhXTnhFTVRXNTZWTlFqNUU5RkZGZDV4QlJSUlFBVVVVVUFGRkZGQUJSUlJRQVVVVVVBRkZGRkFCUlJSUUFVVVVVQUZGRkZBQlJSUlFBVVVVVUFGRkZGQUJSUlJRQVVVVVVBRkZGRkFCUlJSUUFVVVVVQUZGRkZBQlJSUlFBVVVVVUFKdW95S2E5TWs0RkFBU0FBTzFjeDR5OGU2VDREMHVXOTFhN2pnalVmTHVQek8zOTFWcmdmaTcrMEhwZncrM2FkWWJkUzFsdjhBbDNoYjVZLzlxUnV3cjVEOFhlTE5XOGNhdStwYXhkdGQzSDhLZndSTC9kVmY0YStEenZpakRaWXZaMHZlbWZlWkR3cGljMWxHcFZYTFRPNCtLM3g3MW40a1N5MlZ1emFab0krNWJvM3pULzhBWFZ2L0FHU3ZMaU1VNml2d25NTTB4R1oxUGFWcEg5RFpibGVGeXVuN0hEUjVVRkZGRmVNZXNGRkZGQUJSUlJRQlYxU0dlNDArNGl0cDJ0cmhvbThxVlA0V3J3YVg0aWVPWkhEUnhUSW1nLzhBSVJSNHYrUHY1LzRhK2hDTVZSMWkvWFI5S3U3N3l2TzhpSnBkbjk2dnBjc3gwTU8vWnlwS2ZNZURtT0RsVzkrTlJ4UEZ0UzEveFBxV2g2TnF0eTBpZjJocWl2SGFQQXIrUkIvM3hXVmVUYW5ZK01QR3RwZTYzcWo3ck5tczRKWS9sbVhiL0Q4dnliSzdmdzc4ZmROMS93QU5YK29mWVpMVy9zb21sK3d6dHNlVlA3NnYvRXRkVHBQeEMwM1VKOUp0cEZrdDc3VXJiN1ZGQnQzL0FDN1A3MWZYU3hPSXduTkI0VDh2VSthalFvWW5sYXhKNXI0WHVmRlBoN1QvQUFUUC9hOTNlVzk2M2tUMlVzQzdFWGEzK3p1LzhlcnIvajdEZFQvRGUraXMxYjdRem9pN04zOS8vWnJUdi9pMzRlMDNUYnErbm5tOGkxdXZzY3UyQm0vZTFTaitPSGhseGRKL3hNZnRFQzdtdC9zRXZtN2Y3KzNiOTJ2T25MRzRqRVF4VWNMOERPK01jTFRvU3c4c1I4UjVEYitETlY4S2E3NGVsMUcwdHREc3BXVi83WTBpVzZsZmQvZGxWMytYZC91VnBmRWo0aStOTk44WVhWcEJkU2FmWnJ0K3liRitTZjhBMjIvZE51Lzc2V3ZUTmUrTW1sYVZZYUpmVzBFbC9wK3F5K1VyUksyOWYrQTdhdTJQeGI4Tlh0bnFGeTl6TllmWVBudVliMjJhS1ZmK0F0WHF2R1l1YmpWcllQbTZIbC9WS0VJK3lvNG5sT0ExdjRnZUliZlc5QnM5YTFPYncxYVQyZm0rZFlXZm52UFAvYytaVzIvOTgxbk40dzhRNnQ0R2x1WkxxUzh1SXRZU0JYYTJYZjVYKzd0cnJwdFU4QWZGWFVrKzJXbHg5dXQ0bWxpKzBSeTJzckwvQUI3ZnU3cTJQaHQ0azhMM2R1Mm5lRmJLNmh0STJiZEw5bmxXTGQvSCs5Yjd6Vm5XclFvVUx2QzhzNC9GN3VuM211SHBUcVYvOTQ1b3Z6T0MrSmZqYlh2RDNpbFBMMSs0VzEycnMwKzBnMlAvQU9QUU1yZjk5Vkw0djFMVXYrRTM4STZsUHErcmFUcHQxRnZhSXdMbEcvdXNxTC9IWGQvRW40bjJ2dzNiVC90VUt1bDQyejdSTEx0aWkvM3RxdTMvQUk3Vzc0TThUdDR0ME9IVUhzWmJGNVArV1UzL0FLRXYrelhJc1k4UGhhZUplR1hMdHphZjVIVDlWVlhFVG8vV1BlN2Evd0NaNTE0UjFmeEhxVTNpYlZOUTF6VUhzdE9uWllMSzN0b3YzcTdmOTJ1ZThPK1A5ZnYvQUJscE1kcnJXb1grbDNyUEZjSmVXeXI1RGYzZjlVcXEzL0FtcjB2eHY4UWIzd3g0aDB2U05OMFJkWXZiL2R0UjdsTGZidC80RFJvdnhKdW44UWYyTHIraHlhRnFMeGViQWlUcmNKS3YreXkxdFNyVHFVcDEvcTBlV1VmZCtIOHR6T2RHTUtrYVRyUzkzMS9PNTVGYmFscStsMnZqdUtmVzlRdXRTaWxieUxhNWczSzYvd0IvN3RkSHJYaTdXYlM5MHEyMVBXYjN3eG96V0t1dDVaV1BtdkxML2RmNVcyLzk4MTNzWHhkMEtUWElkS2xpMUd6dXBXMlJmYTdPV0paVy93QmxtV3FHbGZHblJ0U3Y5WGhudGIzVDdmVFA5WmRYTVRLdGFlM3hFdmZuZzl2VHlYWXlWS2hIU09LL1AvTTQ2NjhaK01adkI5bkt0MWMyOHN1cExieGFnOW5zbG5nL3ZzclYxM2d1ODEvVHZpQnFtaTZscTF4cTlvbHNzOFV0eEFxdXJOL0Q4cXJXdjRhK0t2aC94WnFIOW4ya3R4RGR1dTZKTDIyYUR6Vi8yTjMzcTdIQXgxcnhjZGp2WXduaDZ1RzVPYjcvQU1qMmNGaFkxbkd0VHJjM0tKUlJSWHc1OVVGRkZGQUJSUlJRQVVVVVZVWVNsTGxSTXBSajcwaGNqdlhRK0JmQUdzL0VYVnZzV2pXMjhKL3I3aC85VkIvdk5Yb2Z3aC9aeTFYeHhMRHFHdXJMcEdpZmVWRy80K0ovL2lWcjY2OE4rRWRMOElhWEhZNlZaeDJsdEh3cUl0ZnFXUThJenhYNy9GKzdIc2ZsSEVQR2xIQ2MySHdQdlZQNXVodzN3cCtCbWlmREdKWndCZmFzeTRsdkpWK2I2TC9kV3ZVaWdIU2dLT005YWQ2ak5mdE9Gd3RMQ1UvWlVJOHNUOEl4T0tyNHlwS3JpSmMwbUxRbFBvcnVPY0tLS0tBQ2lpaWdBb29vb0FLS0tLQUNpaWlnQW9vb29BS0tLS0FDaWlpZ0Fvb29vQUtLS0tBQ2lpaWdBb29vb0FLS0tLQUNpaWlnQW9vb29BS0tLS0FDaWlpZ0Fvb29vQUtLS0tBQ2lpaWdDSU54MHBDKzA4Q2tHUUI2MXhQeEYrSytpZkRYVC9QMU9mOEFldC9xcmVMNXBaUG90YzFXdlR3OEhWcXl0RTFvMGFtSXFLbFNqelNPbzFQVjdYUjdPUzd2TGlPMnRvMTNQSksyMVZYMXI1WitNZjdUMXpxN1Q2VjRSbGUydEI4a21xYmZtZjhBNjVmM2Y5NnZOUGlkOFh0YitLTjEvcGJmWk5NVnQwVmhFM3kvOEQvdk5YRDErTloveGpLcHpZZkJmRC9NZnQzRHZCTWFQTGljdzFsL0tLN3ZOSzhzck04ci9NN3UzenRRYUFjVWxmbEZTcE9yTG5tZnNGT25Ha3VTSVVVVVZrYWhSUlJTQUtLS0tBQ2lpaWdBcXJxbW1ycW1uM1Zvek1pVHhORnZUK0dyVkZhMDVPbStlSm5LUFBIbGtlYWF4OEJ0RzFqd2paYU5MY1NwY1dZMnhhaEVtMlhiVDlSK0ZNTW45aHlXUGlLNTByVU5KZyt5cmNSSkUrNWY5eHE3ZlVkZnNkSHZyS3p1WGRacng5c1pXSm1UZC92VjVQOEFGdjRZNk5lYS93Q0hibTIwUVNTM0dvTDlybWhqZHQ2LzdWZmNaZGpNUmlLc1lWNnpqdTFvbWZLNHZCNGVqQ1VxTk5TbDZ0R3pGOEVyRTZMTHByYTFjWFBtM3kzN1hEcXUvZnVyb3Y4QWhYTnIvd0FKTnFHc2ZhNVBPdmJQN0UwVzM1RVQrOVhDM1duWG5oZnhicjFyb2RuTFpXTVdrdTF0OW5oK1R6ZjlscXpMQ0x4cEZINFJuL3Q3V1dmVk44Vjhzc1Nza0NmOTgvTFhveXBZdXEzSllyM2Y2ZjZIbnhsUXA2UEQvd0JiSFp5L0JTRCt4OUdzYmZXcnF6YlNaM3VJcmlLSmQ3TTFBK0NkamZ3YXYvYm1yWFdzM3VwcXNVdDI2ckZ0VmZ1YlVWZHRjaytxK1BOSzBIeGhhYWZQZmFqY1dkeXFXZHhkeGI1ZksvajIvTDgxVGZCWFdQRnVvK0liaUxVTHk3dmRNOHI1bHZWbjNxMyt5elFSVmRTR1kwOFBVcXJFUnRINys1TWFtQ3ExNDBwVVplOGRENEwrQlduZURiNlc1KzJwZVMrVThVWCtnd1JPdi9BbFhkWFhlQ2ZDTUhnalJ2N09ndVduVHpXbDNTcnQrOVhNZkZ2VXRic0pOTFcybHY3TFEyWnZ0MTNwY0htM0MvM2Y3MWNUZVNlSmZFSGhMeExiVzE5cmR6b3NTSTlqZFhjSGxYTXJmeHA5M2N5LzhCcmxwNGZGNXBSOXJpTVI3c3YrR09uMm1GeStweVVhUHZSUFIvRWZ3ejAveFJyZjlxK2ZINS9rZVE2WEVDWEVXMy9kYjd0VlBoMzhOTFA0ZVhkekpCcmMxK2s2YkdpdU51eGY5Mys3L3VWZStGL2hwZkRmZ094dDkwN3l5d2I1ZnRDcnZWdHYrNVh6cnBXa0dIVXRVT29XRnA1clhrakwvYUdoM2x5N0x1L3ZSZkxXK0JvVmNiR3RnbmlQY2ovZE1NWFhoaHAwOFQ3SDNwZWV4OUZlTlBoNUw0dDFqVGRXc2RibTBpOXNkM2xTeFFMTDk3L2VxdnAzd3gyWDAybzZ2cjE3ckdxdkEwRVYweXJGNUMvN0NxdjNxNWpVdjdYdnRVOEhXR2ozMTlwT2tUd041NzZmQThTTC93Qi9WK1d1ZThSMkhpelVQQW5paXdsMUhXTG1YVHJ6YmJTS3Y3eWVML2dDL05Tb1liRSt5aFIrc1JqSGJiM3R4MXExRG1sVmxSbEw1NkhZYWQ4RFZ0Ny9BRTY4dWZFTnpmemFmUDVzRFN3UmY5OHMyM2MzL2ZWWGJuNE0ydDVlYTIwK3IzYjZkckh6ejJmbEx0M2YzbGY3MWNwcDhldDZ0ckhoWFRkUDF2WGJUU0dzVyswM0R4N0pkeS8zdHkvTFMrS1BFSGlmd3A0aG04TDJkMWUzOHVyc245bjNydnVlMS92N3EybEhIdXB5UnhFZWEzYm92a1p4K3BxSE5LakxsOWVwMHZnTDRHNmY0SDFaTlFXN1c4YUpkc1grZ3dST3YvQTFYZFhwblExVTB1Mmt0Tk90NEo1NUxtV0pkalN2OTltcTFYd1dZNDJ2akt2TlhseldQc01GaHFPR3BjdEdQS0ZGRkZlU2VpRkZGRk1BcGNta3J0dmhuOEk5ZStKMTZpV01mMmJUVmI5L3FFcS9LdjhBdWYzbXIwY0ZnY1JtRlQyZENOMmVianNmaDh1cGUyeEV1VkhLYVJwRjdyK3FXK242YmFTWDE3UDkyS0pmbXI2citFSDdNbG40WmFEVi9FeXg2aHFpZlBIYmZlaXQvd0Q0cHE5SytISHduMFQ0WjZlSU5OaDh5NGNmdmJxWC9XeVYyb3pnNElyOTB5SGhTaGw2VmJFZTlVL0kvQU9JdU1LK1pmdU1ON3RQOFdQampWUGxVZkxUOWxDVSt2MFJLeCtjYmliYVdpaW1BVVVVVUFGRkZGQUJSUlJRQVVVVVVBRkZGRkFCUlJSUUFVVVVVQUZGRkZBQlJSUlFBVVVVVUFGRkZGQUJSUlJRQVVVVVVBRkZGRkFCUlJSUUFVVVVVQUZGRkZBQlJSUlFBVVVVVUFGRkZGQUJSUlJRQjRSOGJmanpQNEl1SjlHMEd5bnZkWENmTk1JR2VLRC9BT0thdmt2Vzd2WFBFZXBTNmhxaTM5OWV5L2VsbXQzL0FQaWEvU013cTYvTXF0OVJUUmFRamtScCtWZkc1dGtOVE41WG5XbEdIOHA5bmt2RU5QSmwrN3c4WlQvbVorYVgyRzYvNThidi93QUJtLzhBaUtQc04xL3o0M2YvQUlETi93REVWK2wva3hmODhsbzhtTC9ua3RmTS93Q29GSC9uOHo2di9pSTJKLzU4eCs4L003N0RlZjhBUGpkZitBNy9BUHhOTyt3M2YvUGxkLzhBZ0svL0FNVFg2WWZaWVA4QW5tbjVVZlpZUCtlYWZsUy8xQXcvL1A1aS93Q0lpNHIvQUo4eFB6Tit3M24vQUQ0M2YvZ08vd0Q4VFR2c04zL3o1WGYvQUlDdi93REUxK21IMldEL0FKNXArVkgyV0Qvbm1uNVVmNmdZZi9uOHcvNGlMaXYrZk1UOHovc04zL3o1WGY4QTRDdi9BUEUwMzdEZWY4K04zLzREdi84QUUxK21YMldEL25tbjVVZlpZUDhBbm1uNVVmNmdZZjhBNS9NUCtJaTRyL256RS9NMzdEZWY4K04zL3dDQTcvOEF4Tk8rdzNmL0FENVhmL2dLL3dEOFRYNllmWllQK2VhZmxSOWxnLzU1cCtWSCtvR0gvd0NmekQvaUl1Sy81OHhQelA4QXNOMy9BTStWMy80Q3YvOEFFMGZZYnY4QTU4cnYvd0FCWC84QWlhL1REN0xCL3dBODAvS2o3TEIvenlUOHFQOEFVREQvQVBQNWgveEVYRmY4K1luNW4vWWJyL254dlA4QXdHYi9BT0lvK3czZi9QaGQvd0RnTTMveEZmcGQ1Q2Y4OGwvU2p5RS81NUwrbFA4QTFBb2Y4L21IL0VSTVQvejVqOTUrWlQ2UE84cVN0cHR5OHFmZGY3Sys5ZjhBeDJwZnNONS96NDNmL2dPLy93QVRYNlkvWTREL0FNczFvK3hRL3dEUEZhZitvZEgvQUovU0YveEVMRWY4K0luNW9mWWJ2L253dS84QXdHYi9BT0lwUHNGMy93QStONS8zNGY4QStKcjlML3M4WC9QSktQczhYL1BKS2Y4QXFGUy81L1NEL2lJVmYvbnhIN3o4MGZzTjEvejQzbi9nTTMveEZKOWd1LzhBbnd1LysvRDErbDNreC84QVBGUHlvOG1QL25pbjVVZjZoVXYrZjBoZjhSQ3Ivd0RQaVAzbjVtYkpFdWt0bWduKzBPck9zUGx0dlpmNysycGZzTjMvQU0rRjMvNERQWDJYNGdqUWZ0WStDMDh0Y2Y4QUNLYXI4djhBMjhXVmV5Zlo0djhBbmtuNVVMZ09sdDdhUlQ4UXEvOEF6NGo5NSthSDJDNy9BT2ZHOC83OFAvOEFFMHYyRzcvNThiei9BTUJtL3dEaUsvUzN5WS8rZVNmbFMvWjQvd0Rua2xDNERwUjJyU0ovNGlGWGYvTGlQM241by9ZYnIvbnh2UDhBd0diL0FPSXBQc0YzL3dBK04zLzM0ZjhBK0pyOUwvczhYL1BKS1BKaS93Q2VLL2xSL3FGUy93Q2YwZy80aUZYL0FPZkVmdlB6UCt3WG4vUGpkLzhBZmg2ejA4R1JKcS85cC8yTmN2ZmJkdjJoNEpXZFA5Mys3WDZnL1k0ZitlU2ZsU2ZZb2Y4QW5rdjVWVWVCNFErR3ZJbVhpQlZsdmg0bjVvL1lMei9ud3V2L0FBRmYvd0NKcFBzVjUvejQzZjhBNEN2L0FQRTErbVAyV0gvbmt2NVV2MldIL25rdjVWbC9xRFEvNS9NMC93Q0lpWXIvQUo4eFB6TSt3M24vQUQ0M2YvZ08vd0Q4VFI5aHZQOEFueHUvL0FkLy9pYS9UTDdMQi96elg4cVBzc0gvQUR6VDhxUDlRTVAvQU0vbUgvRVJjWC96NWlmbWY5aHUvd0RueXUvL0FBRmYvd0NKcHlhYmZPKzFOT3UzZHY0RXRYLytKcjlMdnNzUC9QSmZ5cGZzc1gvUE5hci9BRkJ3My9QMWgveEVYRi84K1lueUo4SS8yWDd6V3hEcWZpeUdTMXN2dng2Y2ZsbGsvd0N1djkzL0FIYStyZEowaTAwU3lpdExHQ08ydDRsMnBIRW0xVnEvc0ZPSys5ZmQ1WmxPR3l1bnlVWW41M21lYjR6TnF2dE1SSUVwMkJTMFY3aDR3VVVVVUFGRkZGQUJSUlJRQVVVVVVBRkZGRkFCUlJSUUFVVVVVQUZGRkZBQlJSUlFBVVVVVUFGRkZGQUJSUlJRQVVVVVVBRkZGRkFCUlJSUUFVVVVVQUZGRkZBQlJSUlFBVVVVVUFGRkZGQUJSUlJRQVVVVVVBRkZGRkFDWUZMUlJRQW1CUmdVdEZBQlJSUlFBVVVVVUFGRkZKa1VBTFJSUlFBVVVVVUFGRkZGQUJSUlJRQW1CUmdVYmg2MDNOVHpJTERzQ29acFVnaWFTUmxSRkc1bWIrR3BHY1V6NVhxZmFJT1UrZHRjK0pmaEc1L2FWOEg2M0Q0bjBaOUhoOEthdDVtb0xmeGVTbitrV244ZTdiWHYybTZqYWF6WTI5NVpYRVYzYVRwdmluaGZlanIvQUhsYXZpbnhqL3dUQjhFK0t2Mms3VDRneFhhMmZoVjMrMlgvQUljUlBrbHV2OWorNmoveExYMnhhVzBHbldzVnRheExGYlJLc2NjU2ZLcXJTOXBBZktYc0NreVBTbzkzKzNUL0FES2Z0RUxsRjIwYmFUektkdUhyUnpJTEMwVW1SUzFvQVVVVVVBRkZGRkFCUlJSUUFVVVVVQUZGRkZBQlJSUlFBVVVVVUFGRkZGQUJSUlJRQVVVVVVBRkZGRkFCUlJSUUFVVVVVQUZGRkZBQlJSUlFBVVVVVUFGRkZGQUJSUlJRQVVVVVVBRkZGRkFCUlJSUUFVVVVVQUZGRkZBQlJSUlFBVVVVVUFGRkZGQUJSUlJRQVVVVVVBRkZGRkFCUlJSUUFVVVVVQUZGRk0zMEFMMnByVWp5S2k4bkZjL2VlTkxHRm1qdDNlK2x4OXkxVGY4QStQZmRybm5YcDB2aWtYR0VwL0NkRlRUSUJYRnplSXRYdkFSRGJ3MktmMzVXODEvKythcU5CZDNmTjNxVnpOL3NJM2xKL3dDTzE1OHNmSDdNVHFqaFp2NGp0Ym5VN2F4ajNYRnhIRW45NTIyMWp6K09OS1RpTzRhNGIvcDNqYVgvQU5Ccm40ZEdzWVg4eGJhUGYvZmY1bi83NnE3czIvZFd1YVdOcXorSDNUcGpnNC9hTGY4QXdtNWRmOUgweTlsLzJtVlkvd0QwTnFpYnhYcTdwOG1td1F0LzAxdU4zL29LMUhTWkZZeXIxcC9hTm80YW4yQnRkMTUvK1d0bEYvdXhNMy9zMU1lNzF1VWZOcWl4ai9wakFvLzlDM1ZMdUZHNFZqenovbVpmc1lmeWxUeXI5MC9lNnpldi91K1VuL29LVTE5UGtmNzJwYWkvL2J5eVZjb3BlOFY3T0JSL3NwWCsvYzNiL3dDL2RQOEEvRjAzK3hMWi92ZWUvd0R2enRWNzhLZFQ1RVh5SXp2N0FzLytlVC85L1gvK0twUDdDc3YrZWIvOS9YclR4NzBZOTZYczBPeU0zK3diUlA0SlArL3Ivd0R4Vk8vc1dEK0ZwMC8zSjMvK0txL3NvMlVjaTdqc2lpZE0yL2R2cjFQOTI1bC8rTHBVczUwKzdxZCtuL2JmZi82RlZ5bjVwOG5tWjhpN0ZQZnFpTjh1dVhMZjdEeFJOLzdKVXk2bnJrWC9BREVMZC84QWV0c2YrejFOa1V6YVBXcXZQN01pUFpRL2xISjRpMXVQNzBWbE4vdTcxcVZQR1YvSC9yOUhaLzhBcjNuUi93RDBMWlVHMmphUFdyOXBYajhNaWZxOUwrVXZEeHZhNC9md1h0dWY5cTNadi9RYXVXbmkzU0x0dGtXb1E3LzdydHRiL3dBZXJGQXhUWnJhSzVUYkxFcnAvdHJXa2NYV2p1WXl3a0Rza21EOHF5dFUxZWRwb3RyQzI2Mjgyei82OTVXU3A0THJWN0Z2M1dwZmFVL3VYY1c3L3dBZVd1cU9ZL3pST2VXRWw5azd6ZDdVdSt1UWg4WDNkdC94KzZkSnMvNTdXcmVhdi9mUDNxMjlPMTJ6MVVIN05jcTdqN3laK2RmK0ExM1U4VlNxL0RJNUpVWncrSTE2S1lqNW8zMTJHWStpazNVdEFCUlJSUUFVVVVVQUZGRkZBQlJSUlFBVVVVVUFGRkZGQUJSUlJRQVVVVVVBRkZGRkFCUlJSUUFVVVVVQUZGRkZBQlJSUlFBVVVVVUFGRkZGQUJSUlJRQVVVVVVBRkZGRkFCUlJSUUFVVVVVQUZGRkZBQlJSUlFBVVVVVUFGRkZGQUJSUlRLQUVEWXJuOVk4VVEyRTMyYUJEZFhyTHU4cFQ5My9lL3UxYjEvVXY3SDBhOHZOdTk0SW1sMjF4MmhXN1IyU1R5TjUxeFA4QXZaWlcvaWF2SHhtSmxUbDdPSjJZYWg3VDNwRm1lM3VOVGJkcUZ5MHlmOCs2ZkxFdi93QVZVaXdyQ3UxRlZGLzJLbTIwMDE1RGpmMzJleENLanNMUlM3YVdxTkFvb29vQUtLS0tBQ2lpaWdBb29vb0FLS0t4ZkYrc1NlSHZDK3JhbkFpdk5aV3N0d3FQOTFtVk4xQUd6Z2lqZFg1MGVGZitDZ1h4VzhZYWE5OUEzd2UwcUh6WGlXMzF2WDJ0Ymo1Zjc2TkxYMHo0Wi9hU2s4Ti9BcC9pTjhTcGRFTnNrdXhwdkIwLzIrM2RQOWx0L3dBMWRVcUVvblBHdEdSNzl1bzNWNEJOKzIxOE9iYTQwZDd5RHhKcHVsYXN5Slo2emZhRmNSV01yTjl6OTZ5VjB2eEMvYWI4R2ZEcnhIWmVISi83VTE3eEhlUmZhSXRKOFBhZExlM0hsZjMzUmZ1clUremtWN1NKNjNpaXZtZjRVZnRhVC9GZjlvdlh2QWRqcGkyMmhhYllyY2VkZDJzOXZmTEwvR2txTjkzL0FMNXI2VlU0cktVWlErSWNaY3craW0veDA2b05Rb29vb0FLS0tLQUNrYWxvb0FiVmE1c0lMbjVtWDk2djNaVStWMS80RlZ2clJVU2pjbGpMUFdkUTBmOEExN05xTnIvNUZULzRxdXFzTCsyMVcxV2Uya1dXSnY0NjVRakZVOUd1WDBqeFZEYlJmOGU5K2pGay91c3Y4VmR0REV6cFNqR1h3eVBPcjRlTGp6UlBRMHA5TVNuMTlHZVVGRkZGQUJSUlJRQVVVVVVBRkZGRkFCUlJSUUFVVVVVQUZGRkZBQlJSUlFBVVVVVUFGRkZGQUJSUlJRQVVVVVVBRkZGRkFCUlJSUUFVVVVVQUZGRkZBQlJSUlFBVVVVVUFGRkZGQUJSUlJRQVVVVVVBRkZGRkFCUlJSUUFVVVVVQUZNMlUraWdDbmUyY2Q1YXl3eXJ2aWtYYXkxd0VGdk40ZWxUVDd2OEExUS80OXJqK0ZsL3VmNzFla2tjVlR2TEdDOGlhQ2VOWm9uKzhyVjUrSnd2dHZlajhSMFVhM3N6bGFRdG1wcm53dmRXVGJ0T3VkOFAvQUQ3M0gvc3JWbHphZzFqOHVvVzB0aC90dXU5UCsrbHJ4S2xPZEw0ejE2ZGFFL2hORGRTMVhobWl1VjNSTXJwL2VTcHFnNlIxRkZGTUFvb29vQUtLS0tBQ2lpaWdBckY4WGFQSjRoOEs2eHBrREtrMTdheTI2dS8zVlprMjF0WkZHUlR1S3grY1hoWDlnRDR0K0Q5T2V4Z3NmZ3hyRVhtdEt0M3JlaXkzVncrNys4N3hWN1hySDdNbnhEOFcvc3lYdnc1MVdmd1hwV3F0ZEpMYko0ZXRaYlhUNG9sZmQ5elo5Ny9nRmZXR1RTZ1pyb2xpWlRNSTBZeFBuUDQ3L3MyYTk4VWZndDRQOEhhWnFHbjJkN28wOW5MTExjTS9sTjVXemZ0MnAvc1ZuK0xmMmJQSEdnL0d5MStKL3dBTzlYMEo5VmwwNU5OdnRNOFFwTDluZEYvalI0dm1XdnAyaW85cElQWlJQbUw0Ui9zN2VQOEF3MyswYjRnK0tIakhXdEF2L3dDMXJCYlg3UHBNVXNYbE52OEF1ZlA5NWY4QWEzVjlPbm1nSE5GUktjcGx4anloUlJSVUdvVVVab3pTQUtLS0tZQlJSbW12U0FUZFM3NnFUNmxiV2piWlpsRC9BTUtmeHQvd0dwTGUzMVRWUDlSWi9ab3YrZXQzOHY4QTQ1VjZ6OTJCaktvb2ZFTGMzTWRwQzhzcmJFV3AvREdpelhPb2YydGVSdEQ4dXkyaGY3NnIvZWF0VFNmQzBGbktrODd0ZVhTajVaWmY0ZjhBZFgrR3QzcFhvVU1ITG01cXA1dGZFOC91eEhwVDZqWDcxU1Y3WjU0VVVVVUFGRkZGQUJSUlJRQVVVVVVBRkZGRkFCUlJSUUFVVVVVQUZGRkZBQlJSUlFBVVVVVUFGRkZGQUJSUlJRQVVVVVVBRkZGRkFCUlJSUUFVVVVVQUZGRkZBQlJSUlFBVVVVVUFGRkZGQUJSUlJRQVVVVVVBRkZGRkFCUlJSUUFVVVVVQUZGRkZBQ2JhaWxSZHYzYW1wajFQS21CejkxNFAweTVacEZ0dnMwemZ4MjdlVS84QTQ3V2UvaEMrdHR3dE5UYVQvWnU0dDMvank3YTYvYlJ0cmlsaEtNK2hyR3ZVaWNMTHAydVd6WWF6aHVVL3YyODIxdjhBdmxxZ2Uva3Qvd0RqNTArOXR2OEFmZzNwL3dCOUxYb08yaG9RYTVwWmYvS3plT01sMVBPdjdlMC83clhjU04vY21iYi9BT2hWY2l1a21YZEd5dW45NUdyc3BiU0tiNVpJMGtIKzB0Wmx4NFEwYVlsNU5PdHQvd0RmU01LMVlmVXE4ZmhhTjQ0MlA4cGlaRkdSV2szZ2JUQi9xMW1nL3dDdWN6RCt0UXllRFlnUDNlbzMwZjFsMy84QW9XYTVKVXFoMGZXb0ZTa3dLblBnNjQyNGoxaTVQL1hXT0p2L0FHU21mOEl0cWlkTldnUDFzLzhBN09vU3FSM0w5dkFqMkNqQXBUNGYxWmV1b1dyZlcyYi9BT0xwRG9XcnFPWjdOdnFqVVhxZnkva2FlMWozRjMwVTMreU5aLzU2V1A1UFIvWkdzZjhBUFN4L0o2dzUzMko5ckVYQW93S2IvWTJzZjg5Ykg4bnB3MGJWbjZYVm92MWpZLzFyWG44aS9heDdoZ1V0QytIdFhtR1YxRzFUNjJ6SC93Qm5wNitFZFJIK3QxZ2Y5c3JmYi83TlZXay9oUmxLckZkU1BJb3lLdGp3VzZqTW1zM3JmN2l4TC83SlVpZUJyWEcyUzd2WmgvdDNEVnA3R3QyUkgxcUJRM2Y3VlZyblU3VzEvd0JmY3h3Lzc3YmEzUjRKMGVQNzlwNTMvWFdSbS9tYXVXK2hhYnA1L2MyVUVQOEExeWlWYTZ2cU9JOGpONHlQWTVFYTVBLytxYVM1L3dDdmVKbnFSRzFDNVA4QW8ybFhKLzI3amJFdi9qM3pWM2l3SW4zVVVVN2JXa2N1bDlxUnp5eDM4cU9OaThQNjNjZjZ5UzBzMC8yTjhyZit5VmFpOEZLN2I3eSt1THovQUdOL2xKLzQ3WFVpTTQ2MGJhNlk0R2xENHRUbmxpYWtqT3NORHNkS1hOcmFSdy83U0w4MWFWSmlqYlhiR25HSHV4TUw4eEpSUlJXb0JSUlJRQVVVVVVBRkZGRkFCUlJSUUFVVVVVQUZGRkZBQlJSUlFBVVVVVUFGRkZGQUJSUlJRQVVVVVVBRkZGRkFCUlJSUUFVVVVVQUZGRkZBQlJSUlFBVVVVVUFGRkZGQUJSUlJRQVVVVVVBRkZGRkFCUlJSUUFVVVVVQWYvOWs9IiBoZWlnaHQ9IjYwNiIgd2lkdGg9IjY4NSIvPjxjbGlwUGF0aCBpZD0iY2xpcDEiPjxyZWN0IGhlaWdodD0iMjk3MTgwMCIgd2lkdGg9IjMzNTkyMTMiIHk9IjAiIHg9IjAiLz48L2NsaXBQYXRoPjwvZGVmcz48Zz48ZyB0cmFuc2Zvcm09InNjYWxlKDAuMDAwMTA0OTg3IDAuMDAwMTA0OTg3KSI+PGcgdHJhbnNmb3JtPSJzY2FsZSgxLjIwNzkyIDEpIiBjbGlwLXBhdGg9InVybCgjY2xpcDEpIj48dXNlIHRyYW5zZm9ybT0ic2NhbGUoNDkwMy45NiA0OTAzLjk2KSIgeGxpbms6aHJlZj0iI2ltZzAiIGhlaWdodD0iMTAwJSIgd2lkdGg9IjEwMCUiLz48L2c+PC9nPjwvZz48L3N2Zz4=;" vertex="1" parent="1">
          <mxGeometry x="-3080" y="230" width="8670" height="6349.87" as="geometry" />
        </mxCell>
      </root>
    </mxGraphModel>
  </diagram>
</mxfile>
